<svg xmlns="http://www.w3.org/2000/svg" xmlns:xlink="http://www.w3.org/1999/xlink" fill="none" version="1.1" width="24" height="24" viewBox="0 0 24 24"><defs><clipPath id="master_svg0_3526_53604"><rect x="0" y="0" width="24" height="24" rx="0"/></clipPath><filter id="master_svg1_3526_53604/1445_2713" filterUnits="objectBoundingBox" color-interpolation-filters="sRGB" x="-10" y="-10" width="36.00470542907715" height="35.999982833862305"><feFlood flood-opacity="0" result="BackgroundImageFix"/><feColorMatrix in="SourceAlpha" type="matrix" values="0 0 0 0 0 0 0 0 0 0 0 0 0 0 0 0 0 0 127 0"/><feOffset dy="0" dx="0"/><feGaussianBlur stdDeviation="2.5"/><feColorMatrix type="matrix" values="0 0 0 0 0.1725490242242813 0 0 0 0 0.6274510025978088 0 0 0 0 1 0 0 0 1 0"/><feBlend mode="normal" in2="BackgroundImageFix" result="effect1_dropShadow"/><feBlend mode="normal" in="SourceGraphic" in2="effect1_dropShadow" result="shape"/></filter></defs><g style="mix-blend-mode:passthrough" clip-path="url(#master_svg0_3526_53604)"><g style="mix-blend-mode:passthrough"><g filter="url(#master_svg1_3526_53604/1445_2713)"><path d="M4.416718375,8.187750000000001L11.465739375,11.59196C11.649329375,11.67929,11.895269375,11.725629999999999,12.136779375,11.725629999999999C12.379179375,11.725629999999999,12.624249375,11.6793,12.807819375,11.59196L19.856859375,8.187750000000001C20.228459375,8.00864,20.228459375,7.71633,19.856859375,7.53721L12.808699375,4.133897C12.596829375,4.0419296,12.367729375,3.99635309,12.136799375,4.000227804C11.896179375,4.000227804,11.649329375,4.0456563,11.466649375,4.133897L4.416718375,7.53811C4.045989875,7.71633,4.045989875,8.00864,4.416718375,8.187750000000001ZM19.857959375,11.67492L18.399159375,10.9709C18.228959375000002,10.887129999999999,18.182559375,10.89159,18.003459375,10.97448Q17.825259375,11.05824,12.803579375,13.48307C12.616429375,13.5704,12.374929375,13.61674,12.133429375,13.61674C11.891939375,13.61674,11.645969375,13.5704,11.462389375,13.48307Q6.575299375,11.12508,6.346279375,11.012789999999999C6.096749375,10.89159,6.0254593750000005,10.89159,5.799989375,11.000309999999999L4.408905375,11.67046C4.038177275,11.84959,4.038177275,12.14188,4.408905375,12.32101L11.457929374999999,15.7252C11.641519375,15.8126,11.887459374999999,15.858,12.128969375,15.858C12.370479375,15.858,12.616429375,15.8126,12.800009375,15.7243L19.849059375,12.32012C20.228659375,12.14545,20.228659375,11.854040000000001,19.857959375,11.67492ZM18.399459375,15.1084L19.858259375,15.8125L19.858259375,15.8116C20.228159375,15.9916,20.228159375,16.283,19.853859375,16.4621L12.803919375,19.866300000000003C12.621219375,19.9536,12.374389375,20,12.133769375,20C11.892259375,20,11.646309375000001,19.9572,11.462729375,19.866300000000003L4.412799375,16.4621C4.042087475,16.283,4.042087475,15.9907,4.412799375,15.8125L5.804789375,15.1414C6.029349375,15.0327,6.100659375,15.0327,6.350169375,15.1539Q6.579209375,15.2662,11.467179375,17.624200000000002C11.649859375,17.7115,11.896709375,17.7578,12.137329375,17.7578C12.379729375,17.7578,12.621219375,17.7115,12.808369375,17.6251Q17.825559374999997,15.1958,18.003759375,15.112C18.182859375,15.0282,18.229259374999998,15.0247,18.399459375,15.1084Z" fill-rule="evenodd" fill="#19DBFF" fill-opacity="1"/></g></g></g></svg>