<svg xmlns="http://www.w3.org/2000/svg" xmlns:xlink="http://www.w3.org/1999/xlink" fill="none" version="1.1" width="24" height="24" viewBox="0 0 24 24"><defs><clipPath id="master_svg0_3526_53531"><rect x="0" y="0" width="24" height="24" rx="0"/></clipPath><filter id="master_svg1_3526_53531/1445_3294" filterUnits="objectBoundingBox" color-interpolation-filters="sRGB" x="-10" y="-10" width="37.73912811279297" height="36"><feFlood flood-opacity="0" result="BackgroundImageFix"/><feColorMatrix in="SourceAlpha" type="matrix" values="0 0 0 0 0 0 0 0 0 0 0 0 0 0 0 0 0 0 127 0"/><feOffset dy="0" dx="0"/><feGaussianBlur stdDeviation="2.5"/><feColorMatrix type="matrix" values="0 0 0 0 0.1725490242242813 0 0 0 0 0.6274510025978088 0 0 0 0 1 0 0 0 1 0"/><feBlend mode="normal" in2="BackgroundImageFix" result="effect1_dropShadow"/><feBlend mode="normal" in="SourceGraphic" in2="effect1_dropShadow" result="shape"/></filter></defs><g style="mix-blend-mode:passthrough" clip-path="url(#master_svg0_3526_53531)"><g style="mix-blend-mode:passthrough"><g filter="url(#master_svg1_3526_53531/1445_3294)"><path d="M20.684659375,19L3.310571375,19C3.246014375,19.0004,3.186257775,18.9664,3.154288275,18.911C3.122318765,18.855600000000003,3.123116865,18.787399999999998,3.156375675,18.732799999999997L4.458929375,16.6404L5.551819375,16.6404C5.539659374999999,16.5851,5.534219375,16.5286,5.535589375,16.472099999999998L5.535589375,9.71801C5.535609375,9.68755,5.538329375,9.65715,5.543709375000001,9.62715L4.523849375,9.62715C4.257719375,9.62313,4.026489375,9.445409999999999,3.957112375,9.19158C3.859802375,8.918479999999999,3.954822375,8.614650000000001,4.191109375,8.44336L11.652029375,3.109593C11.853199375,2.9634691,12.127169375,2.9634691,12.328329375,3.109593L19.782459375,8.44469C20.019359375,8.61373,20.115159375,8.916730000000001,20.017859375,9.18891C19.947059375,9.44236,19.714559375,9.61858,19.448359375,9.620470000000001L18.159359375,9.620470000000001C18.164559375,9.65276,18.167659375,9.68534,18.168859375,9.71801L18.168859375,16.4694C18.167759375,16.5263,18.161859375,16.5831,18.151259375000002,16.6391L19.727059375,16.6391L20.849659375,18.7394C20.862859375,18.7651,20.869959375,18.7935,20.869959375,18.8223C20.870359375,18.869500000000002,20.851459375,18.9149,20.817659375,18.9483C20.783859375,18.9817,20.737859375,19.0003,20.690059375,19L20.684659375,19ZM14.617059375,9.60869C14.622059375,9.64072,14.625159375,9.673020000000001,14.626259375,9.70542L14.626259375,16.3996C14.625259375,16.455199999999998,14.619459375,16.5106,14.609159375,16.5652L16.696059375,16.5652C16.686759375,16.509999999999998,16.681459375,16.4542,16.680259375,16.3983L16.680259375,9.70542C16.680659374999998,9.672979999999999,16.683759375,9.64063,16.689459375,9.60869L14.617059375,9.60869ZM10.798779374999999,9.60869C10.798139375,9.62149,10.798139375,9.634319999999999,10.798779374999999,9.647120000000001C10.800779375000001,9.667390000000001,10.800779375000001,9.6878,10.798779374999999,9.70807L10.798779374999999,16.396900000000002C10.798159375000001,16.453400000000002,10.792889375,16.509700000000002,10.783029375,16.5652L12.869989375,16.5652C12.858189375,16.509900000000002,12.852909375,16.4535,12.854239375,16.396900000000002L12.854239375,9.7041C12.854909375,9.6726,12.857539375,9.64118,12.862109375,9.610019999999999L10.798779374999999,9.60869ZM7.321809375,9.60869L7.321809375,9.63387C7.323049375,9.65859,7.323049375,9.68335,7.321809375,9.70807L7.321809375,16.396900000000002C7.320749375,16.453400000000002,7.315049375,16.509700000000002,7.304769375,16.5652L9.391729375,16.5652C9.380579375,16.5098,9.375309375,16.453400000000002,9.375999375,16.396900000000002L9.375999375,9.7041C9.375999375,9.6723,9.375999375,9.64182,9.383859375,9.610019999999999L7.321809375,9.60869ZM12.000419375,5.43478C11.302129375,5.463089999999999,10.759099375,6.00648,10.783839375,6.65217C10.759099375,7.29786,11.302129375,7.84125,12.000419375,7.86956C12.698719375,7.84125,13.241759375,7.29786,13.216959375,6.65217C13.240959375,6.00699,12.698149375,5.4643999999999995,12.000419375,5.43609L12.000419375,5.43478Z" fill="#19DBFF" fill-opacity="1"/></g></g></g></svg>