<svg xmlns="http://www.w3.org/2000/svg" xmlns:xlink="http://www.w3.org/1999/xlink" fill="none" version="1.1" width="24" height="24" viewBox="0 0 24 24"><defs><clipPath id="master_svg0_3526_53676"><rect x="0" y="0" width="24" height="24" rx="0"/></clipPath><filter id="master_svg1_3526_53676/1445_3223" filterUnits="objectBoundingBox" color-interpolation-filters="sRGB" x="-10" y="-10" width="34.181817054748535" height="35.999999046325684"><feFlood flood-opacity="0" result="BackgroundImageFix"/><feColorMatrix in="SourceAlpha" type="matrix" values="0 0 0 0 0 0 0 0 0 0 0 0 0 0 0 0 0 0 127 0"/><feOffset dy="0" dx="0"/><feGaussianBlur stdDeviation="2.5"/><feColorMatrix type="matrix" values="0 0 0 0 0.1725490242242813 0 0 0 0 0.6274510025978088 0 0 0 0 1 0 0 0 1 0"/><feBlend mode="normal" in2="BackgroundImageFix" result="effect1_dropShadow"/><feBlend mode="normal" in="SourceGraphic" in2="effect1_dropShadow" result="shape"/></filter></defs><g style="mix-blend-mode:passthrough" clip-path="url(#master_svg0_3526_53676)"><g style="mix-blend-mode:passthrough"><g filter="url(#master_svg1_3526_53676/1445_3223)"><path d="M17.716759375000002,10.087430000000001C16.276159375,10.67791,14.386819375,11.02754,12.221769375000001,11.02754C10.056719375,11.02754,8.168389375,10.67791,6.729489375,10.087430000000001C6.286779375,9.90877,5.862717375,9.68802,5.463305375,9.42829C5.351639375,9.354790000000001,5.231890375,9.2813,5.130859375,9.20507L5.130859375,11.94118C5.130859375,13.55807,8.306649375,14.8717,12.221769375000001,14.8717C16.136859375,14.8717,19.312659375000003,13.55891,19.312659375000003,11.94118L19.312659375000003,9.20507C19.211659375,9.28403,19.091859375,9.354790000000001,18.980259375,9.42829C18.581759375,9.687999999999999,18.158659375,9.908760000000001,17.716759375000002,10.087430000000001ZM5.130859375,14.3333L5.130859375,17.0669C5.130859375,18.6872,8.306649375,20,12.221769375000001,20C16.136859375,20,19.312659375000003,18.6872,19.312659375000003,17.0669L19.312659375000003,14.3333C17.866359375000002,15.4547,15.315059375,16.1558,12.219219375,16.1558C9.123399375,16.1558,6.577199375,15.4547,5.130859375,14.3333ZM12.221769375000001,9.85897C16.136859375,9.85897,19.312659375000003,8.546140000000001,19.312659375000003,6.9286200000000004C19.311259375,6.723380000000001,19.262059375,6.5212,19.168859375,6.33772C19.118659375,6.23928,19.059959375,6.14528,18.993459375,6.056760000000001C18.839559375,5.85823,18.658659375,5.68158,18.455959375,5.5318000000000005C18.216859375,5.35278,17.961359375,5.19629,17.692759375,5.06437C17.382559375,4.910063,17.061559375,4.777582,16.732459374999998,4.66792C16.410359375,4.558097,16.082859374999998,4.464256,15.751259375,4.386749C14.594189375,4.121739,13.409549375,3.99205659,12.221769375000001,4.000376268C11.034059375,3.99341843,9.849579375000001,4.123083,8.692269375,4.386749C8.362589375,4.465494,8.032899375,4.559987,7.710879375,4.66771C7.382049374999999,4.778058,7.061259375,4.910519,6.7507593749999995,5.06416C6.482029375,5.1961200000000005,6.226389375,5.35262,5.987179375,5.53159C5.784484375,5.68143,5.603689375,5.85815,5.449905375,6.056760000000001C5.383299375,6.14528,5.324520375,6.239269999999999,5.274217375,6.33772C5.180699475,6.52106,5.131622314,6.72335,5.130859375,6.9286200000000004C5.130859375,8.54866,8.303879375000001,9.85897,12.221769375000001,9.85897Z" fill="#19DBFF" fill-opacity="1"/></g></g></g></svg>