<svg xmlns="http://www.w3.org/2000/svg" xmlns:xlink="http://www.w3.org/1999/xlink" fill="none" version="1.1" width="24" height="24" viewBox="0 0 24 24"><defs><clipPath id="master_svg0_3526_53580"><rect x="0" y="0" width="24" height="24" rx="0"/></clipPath><filter id="master_svg1_3526_53580/1445_3107" filterUnits="objectBoundingBox" color-interpolation-filters="sRGB" x="-10" y="-10" width="36" height="34.40000057220459"><feFlood flood-opacity="0" result="BackgroundImageFix"/><feColorMatrix in="SourceAlpha" type="matrix" values="0 0 0 0 0 0 0 0 0 0 0 0 0 0 0 0 0 0 127 0"/><feOffset dy="0" dx="0"/><feGaussianBlur stdDeviation="2.5"/><feColorMatrix type="matrix" values="0 0 0 0 0.1725490242242813 0 0 0 0 0.6274510025978088 0 0 0 0 1 0 0 0 1 0"/><feBlend mode="normal" in2="BackgroundImageFix" result="effect1_dropShadow"/><feBlend mode="normal" in="SourceGraphic" in2="effect1_dropShadow" result="shape"/></filter></defs><g style="mix-blend-mode:passthrough" clip-path="url(#master_svg0_3526_53580)"><g style="mix-blend-mode:passthrough"><g filter="url(#master_svg1_3526_53580/1445_3107)"><path d="M14.789859375,18.9202C14.789859375,19.177300000000002,14.587259375,19.3889,14.330359375,19.4L7.931309375,19.4C7.674429375,19.3889,7.471899375,19.177300000000002,7.471899375,18.9202C7.471899375,18.6631,7.674429375,18.4516,7.931309375,18.4404L14.330359375,18.4404C14.587259375,18.4516,14.789859375,18.6631,14.789859375,18.9202ZM18.849459375000002,5.280737C19.029659375,5.460719,19.130859375,5.704928,19.130859375,5.959581L19.130859375,16.520400000000002C19.130859375,17.0503,18.700259375,17.4799,18.170359375,17.4799L4.090408375,17.4799C3.560464375,17.4799,3.130859375,17.0503,3.130859375,16.520400000000002L3.130859375,5.959581C3.130859375,5.429691,3.560535375,5.000000419239,4.090408375,5.000000419239L18.171359375,5.000000419239C18.425059375,4.999762551,18.669359375,5.100755,18.849459375000002,5.280737ZM13.185859375,11.340620000000001C12.994709375,11.19242,12.723229375,11.209430000000001,12.552129375,11.38034L12.512409375,11.42548C12.364209375,11.616579999999999,12.381219375,11.88808,12.552129375,12.05918L13.172259375,12.680240000000001L7.451089375,12.680240000000001C7.194199375,12.69139,6.991679375,12.902899999999999,6.991679375,13.16003C6.991679375,13.41717,7.194199375,13.62868,7.451089375,13.63982L13.171359375,13.63982L12.551229375,14.26088L12.511509375,14.30602C12.358609375,14.50638,12.386609375,14.79084,12.575629375,14.95755C12.764649375,15.1243,13.050379375,15.1165,13.230059375,14.93972L14.669859375,13.499L14.709559375,13.45386C14.857159375,13.26292,14.840159375,12.99204,14.669859375,12.82106L13.230959375,11.38034L13.185859375,11.340620000000001ZM8.551449375,7.54022L7.111679375,8.98094C6.940769375,9.15205,6.9237593749999995,9.42354,7.0719593750000005,9.614650000000001L7.111679375,9.65978L8.551449375,11.099599999999999C8.731119374999999,11.27635,9.016839375,11.284130000000001,9.205869374999999,11.117429999999999C9.394889375,10.95072,9.422879375,10.666260000000001,9.269989375,10.465900000000001L9.230269374999999,10.42076L8.610129375,9.7997L14.330359375,9.7997C14.506759375,9.80735,14.673159375,9.71762,14.763559375,9.56602C14.854059375,9.41442,14.854059375,9.2254,14.763559375,9.07381C14.673159375,8.92221,14.506759375,8.83247,14.330359375,8.84012L8.610129375,8.84012L9.230269374999999,8.219059999999999C9.401779375,8.04754,9.418019375,7.776730000000001,9.269989375,7.58536L9.230269374999999,7.54022C9.059169375,7.3693100000000005,8.787679375,7.3523,8.596589375,7.500500000000001L8.551449375,7.54022Z" fill-rule="evenodd" fill="#19DBFF" fill-opacity="1"/></g></g></g></svg>