<svg xmlns="http://www.w3.org/2000/svg" xmlns:xlink="http://www.w3.org/1999/xlink" fill="none" version="1.1" width="24" height="24" viewBox="0 0 24 24"><defs><clipPath id="master_svg0_3526_53555"><rect x="0" y="0" width="24" height="24" rx="0"/></clipPath><filter id="master_svg1_3526_53555/1445_2899" filterUnits="objectBoundingBox" color-interpolation-filters="sRGB" x="-10" y="-10" width="36" height="36"><feFlood flood-opacity="0" result="BackgroundImageFix"/><feColorMatrix in="SourceAlpha" type="matrix" values="0 0 0 0 0 0 0 0 0 0 0 0 0 0 0 0 0 0 127 0"/><feOffset dy="0" dx="0"/><feGaussianBlur stdDeviation="2.5"/><feColorMatrix type="matrix" values="0 0 0 0 0.1725490242242813 0 0 0 0 0.6274510025978088 0 0 0 0 1 0 0 0 1 0"/><feBlend mode="normal" in2="BackgroundImageFix" result="effect1_dropShadow"/><feBlend mode="normal" in="SourceGraphic" in2="effect1_dropShadow" result="shape"/></filter></defs><g style="mix-blend-mode:passthrough" clip-path="url(#master_svg0_3526_53555)"><g style="mix-blend-mode:passthrough" filter="url(#master_svg1_3526_53555/1445_2899)"><g><path d="M14.492559375,4L14.492389375,10.808620000000001L20.279759374999998,12.94624L20.279759374999998,18.7957L20.528759375,18.7957C20.861259375,18.7957,21.130859375,19.0653,21.130859375,19.3979C21.130859375,19.7304,20.861259375,20,20.528759375,20L5.733010375,20C5.400451375,20,5.130859375,19.7304,5.130859375,19.3979C5.130859375,19.0653,5.400451375,18.7957,5.733010375,18.7957L5.981628375,18.7957L5.981923375,4L14.492559375,4ZM18.361659375000002,13.84615L15.900059375,13.84615L15.900059375,15.6923L18.361659375000002,15.6923L18.361659375000002,13.84615ZM9.746239375,12.30769L7.284709375,12.30769L7.284709375,14.1538L9.746239375,14.1538L9.746239375,12.30769ZM13.130859375,12.30769L10.669319375,12.30769L10.669319375,14.1538L13.130859375,14.1538L13.130859375,12.30769ZM9.746239375,9.23077L7.284709375,9.23077L7.284709375,11.076920000000001L9.746239375,11.076920000000001L9.746239375,9.23077ZM13.130859375,9.23077L10.669319375,9.23077L10.669319375,11.076920000000001L13.130859375,11.076920000000001L13.130859375,9.23077ZM9.746239375,6.461539999999999L7.284709375,6.461539999999999L7.284709375,8.307690000000001L9.746239375,8.307690000000001L9.746239375,6.461539999999999ZM13.130859375,6.461539999999999L10.669319375,6.461539999999999L10.669319375,8.307690000000001L13.130859375,8.307690000000001L13.130859375,6.461539999999999Z" fill-rule="evenodd" fill="#19DBFF" fill-opacity="1"/></g></g></g></svg>