<svg xmlns="http://www.w3.org/2000/svg" xmlns:xlink="http://www.w3.org/1999/xlink" fill="none" version="1.1" width="51.49955368041992" height="50.66666603088379" viewBox="0 0 51.49955368041992 50.66666603088379"><defs><filter id="master_svg0_3526_80634/3526_78647" filterUnits="objectBoundingBox" color-interpolation-filters="sRGB" x="-15" y="-15" width="51.49955368041992" height="50.66666603088379"><feFlood flood-opacity="0" result="BackgroundImageFix"/><feColorMatrix in="SourceAlpha" type="matrix" values="0 0 0 0 0 0 0 0 0 0 0 0 0 0 0 0 0 0 127 0"/><feOffset dy="0" dx="0"/><feGaussianBlur stdDeviation="3.75"/><feColorMatrix type="matrix" values="0 0 0 0 1 0 0 0 0 0.21960784494876862 0 0 0 0 0.21960784494876862 0 0 0 1 0"/><feBlend mode="normal" in2="BackgroundImageFix" result="effect1_dropShadow"/><feBlend mode="normal" in="SourceGraphic" in2="effect1_dropShadow" result="shape"/></filter></defs><g filter="url(#master_svg0_3526_80634/3526_78647)"><path d="M33.755700000000004,34.605000000000004C33.5517,34.4011,33.2892,34.255700000000004,32.9962,34.1971C32.8204,34.1619,32.6939,34.0119,32.6939,33.8338L32.6939,26.5516C32.6939,22.825,29.6447,19.73594,25.918100000000003,19.75C22.20327,19.76406,19.1939,22.78047,19.1939,26.5L19.19389,33.8338C19.19389,34.0119,19.06734,34.1619,18.89156,34.1971C18.20718,34.3377,17.69389,34.9424,17.69389,35.6667L34.1939,35.6667C34.1939,35.2518,34.0252,34.8769,33.755700000000004,34.605000000000004ZM27.240000000000002,22.54167L26.7853,26.6034L28.5689,26.6034L24.65018,32.2917L25.1049,28.23L23.31889,28.23L27.240000000000002,22.54167ZM25.9439,17.875C25.5291,17.875,25.1939,17.539839999999998,25.1939,17.125L25.1939,15.75C25.1939,15.335156,25.529,15,25.9439,15C26.3587,15,26.6939,15.335156,26.6939,15.75L26.6939,17.125C26.6939,17.539839999999998,26.3587,17.875,25.9439,17.875ZM20.5064,19.93984C20.1478,20.14609,19.68843,20.02422,19.48218,19.66563L18.1838,17.875C17.97755,17.51641,18.09937,17.057,18.45797,16.85075C18.81656,16.6445,19.27597,16.76641,19.482219999999998,17.125L20.78061,18.91563C20.98687,19.27422,20.86499,19.73125,20.5064,19.93984ZM31.3814,19.93984C31.74,20.14609,32.1994,20.02422,32.4056,19.66563L33.2705,18.14925C33.4767,17.79066,33.3548,17.33125,32.9962,17.125C32.6376,16.91875,32.1783,17.04066,31.972,17.39925L31.1072,18.91563C30.9009,19.27422,31.0228,19.73125,31.3814,19.93984ZM18.68999,23.42734C18.58218,23.82812,18.17202,24.06485,17.77124,23.95703L15.557137,23.427410000000002C15.156356,23.3196,14.9196043,22.90941,15.025073,22.50863C15.132886,22.10785,15.543074,21.87119,15.943856,21.979L18.15796,22.510939999999998C18.55874,22.616410000000002,18.79546,23.02656,18.68999,23.42734ZM33.1978,23.42734C33.3056,23.82812,33.7158,24.06485,34.1166,23.95703L35.9439,23.42969C36.3447,23.32188,36.5813,22.91169,36.4735,22.5109C36.365700000000004,22.110120000000002,35.955600000000004,21.87347,35.5548,21.981279999999998L33.7275,22.508589999999998C33.3291,22.616410000000002,33.0923,23.02656,33.1978,23.42734Z" fill="#FF3838" fill-opacity="1"/></g></svg>