<svg xmlns="http://www.w3.org/2000/svg" xmlns:xlink="http://www.w3.org/1999/xlink" fill="none" version="1.1" width="96" height="108.80029296875" viewBox="0 0 96 108.80029296875"><defs><linearGradient x1="0.4932396411895752" y1="1.0885783433914185" x2="0.5" y2="0" id="master_svg0_3417_594007"><stop offset="3.57142873108387%" stop-color="#1A6FE7" stop-opacity="1"/><stop offset="62.14285492897034%" stop-color="#0B2654" stop-opacity="1"/></linearGradient><linearGradient x1="0.5" y1="1" x2="0.5238600969314575" y2="0.5" id="master_svg1_3417_594325"><stop offset="0.7142857182770967%" stop-color="#46C4FF" stop-opacity="1"/><stop offset="97.85714149475098%" stop-color="#256FE1" stop-opacity="0"/></linearGradient><linearGradient x1="0" y1="0.24966195225715637" x2="0.9791455268859863" y2="0.789475679397583" id="master_svg2_3417_596652"><stop offset="0%" stop-color="#2DA4EE" stop-opacity="1"/><stop offset="31.598153710365295%" stop-color="#1C5DB9" stop-opacity="1"/><stop offset="100%" stop-color="#0B2654" stop-opacity="1"/></linearGradient><linearGradient x1="1" y1="0.867750883102417" x2="-0.061740580946207047" y2="0" id="master_svg3_3417_595619"><stop offset="0%" stop-color="#1759B6" stop-opacity="1"/><stop offset="100%" stop-color="#0B2654" stop-opacity="1"/></linearGradient><filter id="master_svg4_3526_52756" filterUnits="objectBoundingBox" color-interpolation-filters="sRGB" x="-5.485714435577393" y="-5.485714435577393" width="13.714286088943481" height="13.714286088943481"><feFlood flood-opacity="0" result="BackgroundImageFix"/><feBlend mode="normal" in="SourceGraphic" in2="BackgroundImageFix" result="shape"/><feGaussianBlur stdDeviation="1.3714286088943481" result="effect1_foregroundBlur"/></filter><filter id="master_svg5_3526_52759" filterUnits="objectBoundingBox" color-interpolation-filters="sRGB" x="-5.485714435577393" y="-5.485714435577393" width="13.714286088943481" height="13.714286088943481"><feFlood flood-opacity="0" result="BackgroundImageFix"/><feBlend mode="normal" in="SourceGraphic" in2="BackgroundImageFix" result="shape"/><feGaussianBlur stdDeviation="1.3714286088943481" result="effect1_foregroundBlur"/></filter><filter id="master_svg6_3526_52762" filterUnits="objectBoundingBox" color-interpolation-filters="sRGB" x="-5.485714435577393" y="-5.485714435577393" width="13.714286088943481" height="13.714286088943481"><feFlood flood-opacity="0" result="BackgroundImageFix"/><feBlend mode="normal" in="SourceGraphic" in2="BackgroundImageFix" result="shape"/><feGaussianBlur stdDeviation="1.3714286088943481" result="effect1_foregroundBlur"/></filter><filter id="master_svg7_3526_52766" filterUnits="objectBoundingBox" color-interpolation-filters="sRGB" x="-5.485714435577393" y="-5.485714435577393" width="13.714286088943481" height="13.714286088943481"><feFlood flood-opacity="0" result="BackgroundImageFix"/><feBlend mode="normal" in="SourceGraphic" in2="BackgroundImageFix" result="shape"/><feGaussianBlur stdDeviation="1.3714286088943481" result="effect1_foregroundBlur"/></filter><filter id="master_svg8_3526_52769" filterUnits="objectBoundingBox" color-interpolation-filters="sRGB" x="-5.485714435577393" y="-5.485714435577393" width="13.714286088943481" height="13.714286088943481"><feFlood flood-opacity="0" result="BackgroundImageFix"/><feBlend mode="normal" in="SourceGraphic" in2="BackgroundImageFix" result="shape"/><feGaussianBlur stdDeviation="1.3714286088943481" result="effect1_foregroundBlur"/></filter><filter id="master_svg9_3526_52772" filterUnits="objectBoundingBox" color-interpolation-filters="sRGB" x="-5.485714435577393" y="-5.485714435577393" width="13.714286088943481" height="13.714286088943481"><feFlood flood-opacity="0" result="BackgroundImageFix"/><feBlend mode="normal" in="SourceGraphic" in2="BackgroundImageFix" result="shape"/><feGaussianBlur stdDeviation="1.3714286088943481" result="effect1_foregroundBlur"/></filter><filter id="master_svga_3526_52776" filterUnits="objectBoundingBox" color-interpolation-filters="sRGB" x="-5.485714435577393" y="-5.485714435577393" width="13.714286088943481" height="13.714286088943481"><feFlood flood-opacity="0" result="BackgroundImageFix"/><feBlend mode="normal" in="SourceGraphic" in2="BackgroundImageFix" result="shape"/><feGaussianBlur stdDeviation="1.3714286088943481" result="effect1_foregroundBlur"/></filter><filter id="master_svgb_3526_52779" filterUnits="objectBoundingBox" color-interpolation-filters="sRGB" x="-5.485714435577393" y="-5.485714435577393" width="13.714286088943481" height="13.714286088943481"><feFlood flood-opacity="0" result="BackgroundImageFix"/><feBlend mode="normal" in="SourceGraphic" in2="BackgroundImageFix" result="shape"/><feGaussianBlur stdDeviation="1.3714286088943481" result="effect1_foregroundBlur"/></filter><filter id="master_svgc_3526_52782" filterUnits="objectBoundingBox" color-interpolation-filters="sRGB" x="-5.485714435577393" y="-5.485714435577393" width="13.714286088943481" height="13.714286088943481"><feFlood flood-opacity="0" result="BackgroundImageFix"/><feBlend mode="normal" in="SourceGraphic" in2="BackgroundImageFix" result="shape"/><feGaussianBlur stdDeviation="1.3714286088943481" result="effect1_foregroundBlur"/></filter><filter id="master_svgd_3526_52786" filterUnits="objectBoundingBox" color-interpolation-filters="sRGB" x="-5.485714435577393" y="-5.485714435577393" width="13.714286088943481" height="13.714286088943481"><feFlood flood-opacity="0" result="BackgroundImageFix"/><feBlend mode="normal" in="SourceGraphic" in2="BackgroundImageFix" result="shape"/><feGaussianBlur stdDeviation="1.3714286088943481" result="effect1_foregroundBlur"/></filter><filter id="master_svge_3526_52789" filterUnits="objectBoundingBox" color-interpolation-filters="sRGB" x="-5.485714435577393" y="-5.485714435577393" width="13.714286088943481" height="13.714286088943481"><feFlood flood-opacity="0" result="BackgroundImageFix"/><feBlend mode="normal" in="SourceGraphic" in2="BackgroundImageFix" result="shape"/><feGaussianBlur stdDeviation="1.3714286088943481" result="effect1_foregroundBlur"/></filter><filter id="master_svgf_3526_52792" filterUnits="objectBoundingBox" color-interpolation-filters="sRGB" x="-5.485714435577393" y="-5.485714435577393" width="13.714286088943481" height="13.714286088943481"><feFlood flood-opacity="0" result="BackgroundImageFix"/><feBlend mode="normal" in="SourceGraphic" in2="BackgroundImageFix" result="shape"/><feGaussianBlur stdDeviation="1.3714286088943481" result="effect1_foregroundBlur"/></filter><filter id="master_svgg_3526_52796" filterUnits="objectBoundingBox" color-interpolation-filters="sRGB" x="-5.485714435577393" y="-5.485714435577393" width="13.714286088943481" height="13.714286088943481"><feFlood flood-opacity="0" result="BackgroundImageFix"/><feBlend mode="normal" in="SourceGraphic" in2="BackgroundImageFix" result="shape"/><feGaussianBlur stdDeviation="1.3714286088943481" result="effect1_foregroundBlur"/></filter><filter id="master_svgh_3526_52799" filterUnits="objectBoundingBox" color-interpolation-filters="sRGB" x="-5.485714435577393" y="-5.485714435577393" width="13.714286088943481" height="13.714286088943481"><feFlood flood-opacity="0" result="BackgroundImageFix"/><feBlend mode="normal" in="SourceGraphic" in2="BackgroundImageFix" result="shape"/><feGaussianBlur stdDeviation="1.3714286088943481" result="effect1_foregroundBlur"/></filter><filter id="master_svgi_3526_52802" filterUnits="objectBoundingBox" color-interpolation-filters="sRGB" x="-5.485714435577393" y="-5.485714435577393" width="13.714286088943481" height="13.714286088943481"><feFlood flood-opacity="0" result="BackgroundImageFix"/><feBlend mode="normal" in="SourceGraphic" in2="BackgroundImageFix" result="shape"/><feGaussianBlur stdDeviation="1.3714286088943481" result="effect1_foregroundBlur"/></filter><filter id="master_svgj_3526_52806" filterUnits="objectBoundingBox" color-interpolation-filters="sRGB" x="-5.485714435577393" y="-5.485714435577393" width="13.714286088943481" height="13.714286088943481"><feFlood flood-opacity="0" result="BackgroundImageFix"/><feBlend mode="normal" in="SourceGraphic" in2="BackgroundImageFix" result="shape"/><feGaussianBlur stdDeviation="1.3714286088943481" result="effect1_foregroundBlur"/></filter><filter id="master_svgk_3526_52809" filterUnits="objectBoundingBox" color-interpolation-filters="sRGB" x="-5.485714435577393" y="-5.485714435577393" width="13.714286088943481" height="13.714286088943481"><feFlood flood-opacity="0" result="BackgroundImageFix"/><feBlend mode="normal" in="SourceGraphic" in2="BackgroundImageFix" result="shape"/><feGaussianBlur stdDeviation="1.3714286088943481" result="effect1_foregroundBlur"/></filter><filter id="master_svgl_3526_52812" filterUnits="objectBoundingBox" color-interpolation-filters="sRGB" x="-5.485714435577393" y="-5.485714435577393" width="13.714286088943481" height="13.714286088943481"><feFlood flood-opacity="0" result="BackgroundImageFix"/><feBlend mode="normal" in="SourceGraphic" in2="BackgroundImageFix" result="shape"/><feGaussianBlur stdDeviation="1.3714286088943481" result="effect1_foregroundBlur"/></filter><filter id="master_svgm_3526_52816" filterUnits="objectBoundingBox" color-interpolation-filters="sRGB" x="-5.485714435577393" y="-5.485714435577393" width="13.714286088943481" height="13.714286088943481"><feFlood flood-opacity="0" result="BackgroundImageFix"/><feBlend mode="normal" in="SourceGraphic" in2="BackgroundImageFix" result="shape"/><feGaussianBlur stdDeviation="1.3714286088943481" result="effect1_foregroundBlur"/></filter><filter id="master_svgn_3526_52819" filterUnits="objectBoundingBox" color-interpolation-filters="sRGB" x="-5.485714435577393" y="-5.485714435577393" width="13.714286088943481" height="13.714286088943481"><feFlood flood-opacity="0" result="BackgroundImageFix"/><feBlend mode="normal" in="SourceGraphic" in2="BackgroundImageFix" result="shape"/><feGaussianBlur stdDeviation="1.3714286088943481" result="effect1_foregroundBlur"/></filter><filter id="master_svgo_3526_52822" filterUnits="objectBoundingBox" color-interpolation-filters="sRGB" x="-5.485714435577393" y="-5.485714435577393" width="13.714286088943481" height="13.714286088943481"><feFlood flood-opacity="0" result="BackgroundImageFix"/><feBlend mode="normal" in="SourceGraphic" in2="BackgroundImageFix" result="shape"/><feGaussianBlur stdDeviation="1.3714286088943481" result="effect1_foregroundBlur"/></filter><filter id="master_svgp_3526_52826" filterUnits="objectBoundingBox" color-interpolation-filters="sRGB" x="-5.485714435577393" y="-5.485714435577393" width="13.714286088943481" height="13.714286088943481"><feFlood flood-opacity="0" result="BackgroundImageFix"/><feBlend mode="normal" in="SourceGraphic" in2="BackgroundImageFix" result="shape"/><feGaussianBlur stdDeviation="1.3714286088943481" result="effect1_foregroundBlur"/></filter><filter id="master_svgq_3526_52829" filterUnits="objectBoundingBox" color-interpolation-filters="sRGB" x="-5.485714435577393" y="-5.485714435577393" width="13.714286088943481" height="13.714286088943481"><feFlood flood-opacity="0" result="BackgroundImageFix"/><feBlend mode="normal" in="SourceGraphic" in2="BackgroundImageFix" result="shape"/><feGaussianBlur stdDeviation="1.3714286088943481" result="effect1_foregroundBlur"/></filter><filter id="master_svgr_3526_52832" filterUnits="objectBoundingBox" color-interpolation-filters="sRGB" x="-5.485714435577393" y="-5.485714435577393" width="13.714286088943481" height="13.714286088943481"><feFlood flood-opacity="0" result="BackgroundImageFix"/><feBlend mode="normal" in="SourceGraphic" in2="BackgroundImageFix" result="shape"/><feGaussianBlur stdDeviation="1.3714286088943481" result="effect1_foregroundBlur"/></filter><filter id="master_svgs_3526_52836" filterUnits="objectBoundingBox" color-interpolation-filters="sRGB" x="-5.485714435577393" y="-5.485714435577393" width="13.714286088943481" height="13.714286088943481"><feFlood flood-opacity="0" result="BackgroundImageFix"/><feBlend mode="normal" in="SourceGraphic" in2="BackgroundImageFix" result="shape"/><feGaussianBlur stdDeviation="1.3714286088943481" result="effect1_foregroundBlur"/></filter><filter id="master_svgt_3526_52839" filterUnits="objectBoundingBox" color-interpolation-filters="sRGB" x="-5.485714435577393" y="-5.485714435577393" width="13.714286088943481" height="13.714286088943481"><feFlood flood-opacity="0" result="BackgroundImageFix"/><feBlend mode="normal" in="SourceGraphic" in2="BackgroundImageFix" result="shape"/><feGaussianBlur stdDeviation="1.3714286088943481" result="effect1_foregroundBlur"/></filter><filter id="master_svgu_3526_52842" filterUnits="objectBoundingBox" color-interpolation-filters="sRGB" x="-5.485714435577393" y="-5.485714435577393" width="13.714286088943481" height="13.714286088943481"><feFlood flood-opacity="0" result="BackgroundImageFix"/><feBlend mode="normal" in="SourceGraphic" in2="BackgroundImageFix" result="shape"/><feGaussianBlur stdDeviation="1.3714286088943481" result="effect1_foregroundBlur"/></filter><linearGradient x1="0.4932396411895752" y1="1.0885783433914185" x2="0.5" y2="0" id="master_svgv_3417_594007"><stop offset="3.57142873108387%" stop-color="#1A6FE7" stop-opacity="1"/><stop offset="62.14285492897034%" stop-color="#0B2654" stop-opacity="1"/></linearGradient><linearGradient x1="0.5" y1="1" x2="0.5238600969314575" y2="0.5" id="master_svgw_3417_594325"><stop offset="0.7142857182770967%" stop-color="#46C4FF" stop-opacity="1"/><stop offset="97.85714149475098%" stop-color="#256FE1" stop-opacity="0"/></linearGradient><linearGradient x1="0.5" y1="0" x2="0.5" y2="1" id="master_svgx_3417_595973"><stop offset="2.8571465983986855%" stop-color="#1377C1" stop-opacity="0"/><stop offset="97.14285731315613%" stop-color="#1BE8FF" stop-opacity="0.6299999952316284"/></linearGradient><linearGradient x1="0.4932396411895752" y1="1.0885783433914185" x2="0.5" y2="0" id="master_svgy_3417_595913"><stop offset="5.000000074505806%" stop-color="#1E6DE2" stop-opacity="1"/><stop offset="100%" stop-color="#0E316A" stop-opacity="1"/></linearGradient><linearGradient x1="0" y1="0.24966195225715637" x2="0.9791455268859863" y2="0.789475679397583" id="master_svgz_3417_596652"><stop offset="0%" stop-color="#2DA4EE" stop-opacity="1"/><stop offset="31.598153710365295%" stop-color="#1C5DB9" stop-opacity="1"/><stop offset="100%" stop-color="#0B2654" stop-opacity="1"/></linearGradient><linearGradient x1="1" y1="0.867750883102417" x2="-0.061740580946207047" y2="0" id="master_svg10_3417_595619"><stop offset="0%" stop-color="#1759B6" stop-opacity="1"/><stop offset="100%" stop-color="#0B2654" stop-opacity="1"/></linearGradient><linearGradient x1="0.3025105893611908" y1="0.0910579115152359" x2="0.1106313169002533" y2="1" id="master_svg11_3417_582527"><stop offset="4.285720735788345%" stop-color="#0072DE" stop-opacity="1"/><stop offset="79.90975975990295%" stop-color="#3195E2" stop-opacity="1"/><stop offset="99.28582310676575%" stop-color="#00FFE5" stop-opacity="1"/></linearGradient><linearGradient x1="0.5" y1="0" x2="0.5" y2="1" id="master_svg12_3417_581530"><stop offset="0.7142857182770967%" stop-color="#A2FDA3" stop-opacity="1"/><stop offset="64.02599215507507%" stop-color="#00C7EF" stop-opacity="1"/></linearGradient></defs><g style="mix-blend-mode:passthrough"><g style="mix-blend-mode:passthrough"><g style="mix-blend-mode:passthrough"><g transform="matrix(-1,0,0,1,192,0)"><g><g style="mix-blend-mode:passthrough"><path d="M192,73.14288680419922L144.1693,100.57138680419922L96,73.14288680419922L143.8533,45.71428680419922L192,73.14288680419922Z" fill="url(#master_svg0_3417_594007)" fill-opacity="1"/><path d="M191.078,72.61758680419922L192,73.14288680419922L191.0795,73.67068680419922L144.1693,100.57138680419922L96.922303,73.66808680419922L96,73.14288680419922L96.920811,72.61508680419922L143.8533,45.71428680419922L191.078,72.61758680419922ZM143.8547,46.76731680419922L190.1575,73.14548680419922L144.1677,99.51838680419922L97.84311,73.14028680419922L143.8547,46.76731680419922Z" fill-rule="evenodd" fill="url(#master_svg1_3417_594325)" fill-opacity="1"/></g></g><g style="mix-blend-mode:passthrough" transform="matrix(-1,0,0,1,384,0)"><path d="M192,73.14285850524902L192,81.37142850524903L239.5429,108.79995850524902L239.5429,100.57145850524903L192,73.14285850524902Z" fill="url(#master_svg2_3417_596652)" fill-opacity="1"/></g><g style="mix-blend-mode:passthrough"><path d="M96,81.37142850524903L144.4571,108.79995850524902L144.4571,100.57145850524903L96,73.14285850524902L96,81.37142850524903Z" fill="url(#master_svg3_3417_595619)" fill-opacity="1"/></g></g><g style="mix-blend-mode:passthrough"><g style="mix-blend-mode:passthrough"><g style="mix-blend-mode:passthrough"><g style="mix-blend-mode:passthrough" filter="url(#master_svg4_3526_52756)"><ellipse cx="14.171428799629211" cy="73.60000240802765" rx="1.3714286088943481" ry="1.3714286088943481" fill="#2AFFCA" fill-opacity="1"/></g><g style="mix-blend-mode:passthrough"><ellipse cx="14.171428799629211" cy="73.60000240802765" rx="1.3714286088943481" ry="1.3714286088943481" fill="#2AFFCA" fill-opacity="1"/></g></g><g style="mix-blend-mode:passthrough"><g style="mix-blend-mode:passthrough" filter="url(#master_svg5_3526_52759)"><ellipse cx="14.171428799629211" cy="69.0285736322403" rx="1.3714286088943481" ry="1.3714286088943481" fill="#2AFFCA" fill-opacity="1"/></g><g style="mix-blend-mode:passthrough"><ellipse cx="14.171428799629211" cy="69.0285736322403" rx="1.3714286088943481" ry="1.3714286088943481" fill="#2AFFCA" fill-opacity="1"/></g></g><g style="mix-blend-mode:passthrough"><g style="mix-blend-mode:passthrough" filter="url(#master_svg6_3526_52762)"><ellipse cx="14.171428799629211" cy="64.45714485645294" rx="1.3714286088943481" ry="1.3714286088943481" fill="#2AFFCA" fill-opacity="1"/></g><g style="mix-blend-mode:passthrough"><ellipse cx="14.171428799629211" cy="64.45714485645294" rx="1.3714286088943481" ry="1.3714286088943481" fill="#2AFFCA" fill-opacity="1"/></g></g></g><g style="mix-blend-mode:passthrough"><g style="mix-blend-mode:passthrough"><g style="mix-blend-mode:passthrough" filter="url(#master_svg7_3526_52766)"><ellipse cx="21.485714554786682" cy="78.171431183815" rx="1.3714286088943481" ry="1.3714286088943481" fill="#2AFFCA" fill-opacity="1"/></g><g style="mix-blend-mode:passthrough"><ellipse cx="21.485714554786682" cy="78.171431183815" rx="1.3714286088943481" ry="1.3714286088943481" fill="#2AFFCA" fill-opacity="1"/></g></g><g style="mix-blend-mode:passthrough"><g style="mix-blend-mode:passthrough" filter="url(#master_svg8_3526_52769)"><ellipse cx="21.485714554786682" cy="73.60000240802765" rx="1.3714286088943481" ry="1.3714286088943481" fill="#2AFFCA" fill-opacity="1"/></g><g style="mix-blend-mode:passthrough"><ellipse cx="21.485714554786682" cy="73.60000240802765" rx="1.3714286088943481" ry="1.3714286088943481" fill="#2AFFCA" fill-opacity="1"/></g></g><g style="mix-blend-mode:passthrough"><g style="mix-blend-mode:passthrough" filter="url(#master_svg9_3526_52772)"><ellipse cx="21.485714554786682" cy="69.0285736322403" rx="1.3714286088943481" ry="1.3714286088943481" fill="#2AFFCA" fill-opacity="1"/></g><g style="mix-blend-mode:passthrough"><ellipse cx="21.485714554786682" cy="69.0285736322403" rx="1.3714286088943481" ry="1.3714286088943481" fill="#2AFFCA" fill-opacity="1"/></g></g></g><g style="mix-blend-mode:passthrough"><g style="mix-blend-mode:passthrough"><g style="mix-blend-mode:passthrough" filter="url(#master_svga_3526_52776)"><ellipse cx="30.628572583198547" cy="82.74285995960236" rx="1.3714286088943481" ry="1.3714286088943481" fill="#2AFFCA" fill-opacity="1"/></g><g style="mix-blend-mode:passthrough"><ellipse cx="30.628572583198547" cy="82.74285995960236" rx="1.3714286088943481" ry="1.3714286088943481" fill="#2AFFCA" fill-opacity="1"/></g></g><g style="mix-blend-mode:passthrough"><g style="mix-blend-mode:passthrough" filter="url(#master_svgb_3526_52779)"><ellipse cx="30.628572583198547" cy="78.171431183815" rx="1.3714286088943481" ry="1.3714286088943481" fill="#2AFFCA" fill-opacity="1"/></g><g style="mix-blend-mode:passthrough"><ellipse cx="30.628572583198547" cy="78.171431183815" rx="1.3714286088943481" ry="1.3714286088943481" fill="#2AFFCA" fill-opacity="1"/></g></g><g style="mix-blend-mode:passthrough"><g style="mix-blend-mode:passthrough" filter="url(#master_svgc_3526_52782)"><ellipse cx="30.628572583198547" cy="73.60000240802765" rx="1.3714286088943481" ry="1.3714286088943481" fill="#2AFFCA" fill-opacity="1"/></g><g style="mix-blend-mode:passthrough"><ellipse cx="30.628572583198547" cy="73.60000240802765" rx="1.3714286088943481" ry="1.3714286088943481" fill="#2AFFCA" fill-opacity="1"/></g></g></g><g style="mix-blend-mode:passthrough"><g style="mix-blend-mode:passthrough"><g style="mix-blend-mode:passthrough" filter="url(#master_svgd_3526_52786)"><ellipse cx="39.77142918109894" cy="88.22857391834259" rx="1.3714286088943481" ry="1.3714286088943481" fill="#2AFFCA" fill-opacity="1"/></g><g style="mix-blend-mode:passthrough"><ellipse cx="39.77142918109894" cy="88.22857391834259" rx="1.3714286088943481" ry="1.3714286088943481" fill="#2AFFCA" fill-opacity="1"/></g></g><g style="mix-blend-mode:passthrough"><g style="mix-blend-mode:passthrough" filter="url(#master_svge_3526_52789)"><ellipse cx="39.77142918109894" cy="83.65714514255524" rx="1.3714286088943481" ry="1.3714286088943481" fill="#2AFFCA" fill-opacity="1"/></g><g style="mix-blend-mode:passthrough"><ellipse cx="39.77142918109894" cy="83.65714514255524" rx="1.3714286088943481" ry="1.3714286088943481" fill="#2AFFCA" fill-opacity="1"/></g></g><g style="mix-blend-mode:passthrough"><g style="mix-blend-mode:passthrough" filter="url(#master_svgf_3526_52792)"><ellipse cx="39.77142918109894" cy="79.08571636676788" rx="1.3714286088943481" ry="1.3714286088943481" fill="#2AFFCA" fill-opacity="1"/></g><g style="mix-blend-mode:passthrough"><ellipse cx="39.77142918109894" cy="79.08571636676788" rx="1.3714286088943481" ry="1.3714286088943481" fill="#2AFFCA" fill-opacity="1"/></g></g></g><g style="mix-blend-mode:passthrough"><g style="mix-blend-mode:passthrough"><g style="mix-blend-mode:passthrough" filter="url(#master_svgg_3526_52796)"><ellipse cx="53.485714077949524" cy="90.05714619159698" rx="1.3714286088943481" ry="1.3714286088943481" fill="#2AFFCA" fill-opacity="1"/></g><g style="mix-blend-mode:passthrough"><ellipse cx="53.485714077949524" cy="90.05714619159698" rx="1.3714286088943481" ry="1.3714286088943481" fill="#2AFFCA" fill-opacity="1"/></g></g><g style="mix-blend-mode:passthrough"><g style="mix-blend-mode:passthrough" filter="url(#master_svgh_3526_52799)"><ellipse cx="53.485714077949524" cy="85.48571741580963" rx="1.3714286088943481" ry="1.3714286088943481" fill="#2AFFCA" fill-opacity="1"/></g><g style="mix-blend-mode:passthrough"><ellipse cx="53.485714077949524" cy="85.48571741580963" rx="1.3714286088943481" ry="1.3714286088943481" fill="#2AFFCA" fill-opacity="1"/></g></g><g style="mix-blend-mode:passthrough"><g style="mix-blend-mode:passthrough" filter="url(#master_svgi_3526_52802)"><ellipse cx="53.485714077949524" cy="80.91428864002228" rx="1.3714286088943481" ry="1.3714286088943481" fill="#2AFFCA" fill-opacity="1"/></g><g style="mix-blend-mode:passthrough"><ellipse cx="53.485714077949524" cy="80.91428864002228" rx="1.3714286088943481" ry="1.3714286088943481" fill="#2AFFCA" fill-opacity="1"/></g></g></g><g style="mix-blend-mode:passthrough"><g style="mix-blend-mode:passthrough"><g style="mix-blend-mode:passthrough" filter="url(#master_svgj_3526_52806)"><ellipse cx="47.08572781085968" cy="92.8000031709671" rx="1.3714286088943481" ry="1.3714286088943481" fill="#2AFFCA" fill-opacity="1"/></g><g style="mix-blend-mode:passthrough"><ellipse cx="47.08572781085968" cy="92.8000031709671" rx="1.3714286088943481" ry="1.3714286088943481" fill="#2AFFCA" fill-opacity="1"/></g></g><g style="mix-blend-mode:passthrough"><g style="mix-blend-mode:passthrough" filter="url(#master_svgk_3526_52809)"><ellipse cx="47.08572781085968" cy="88.22857439517975" rx="1.3714286088943481" ry="1.3714286088943481" fill="#2AFFCA" fill-opacity="1"/></g><g style="mix-blend-mode:passthrough"><ellipse cx="47.08572781085968" cy="88.22857439517975" rx="1.3714286088943481" ry="1.3714286088943481" fill="#2AFFCA" fill-opacity="1"/></g></g><g style="mix-blend-mode:passthrough"><g style="mix-blend-mode:passthrough" filter="url(#master_svgl_3526_52812)"><ellipse cx="47.08572781085968" cy="83.6571456193924" rx="1.3714286088943481" ry="1.3714286088943481" fill="#2AFFCA" fill-opacity="1"/></g><g style="mix-blend-mode:passthrough"><ellipse cx="47.08572781085968" cy="83.6571456193924" rx="1.3714286088943481" ry="1.3714286088943481" fill="#2AFFCA" fill-opacity="1"/></g></g></g><g style="mix-blend-mode:passthrough"><g style="mix-blend-mode:passthrough"><g style="mix-blend-mode:passthrough" filter="url(#master_svgm_3526_52816)"><ellipse cx="61.71428692340851" cy="85.48562633991241" rx="1.3714286088943481" ry="1.3714286088943481" fill="#2AFFCA" fill-opacity="1"/></g><g style="mix-blend-mode:passthrough"><ellipse cx="61.71428692340851" cy="85.48562633991241" rx="1.3714286088943481" ry="1.3714286088943481" fill="#2AFFCA" fill-opacity="1"/></g></g><g style="mix-blend-mode:passthrough"><g style="mix-blend-mode:passthrough" filter="url(#master_svgn_3526_52819)"><ellipse cx="61.71428692340851" cy="80.91419756412506" rx="1.3714286088943481" ry="1.3714286088943481" fill="#2AFFCA" fill-opacity="1"/></g><g style="mix-blend-mode:passthrough"><ellipse cx="61.71428692340851" cy="80.91419756412506" rx="1.3714286088943481" ry="1.3714286088943481" fill="#2AFFCA" fill-opacity="1"/></g></g><g style="mix-blend-mode:passthrough"><g style="mix-blend-mode:passthrough" filter="url(#master_svgo_3526_52822)"><ellipse cx="61.71428692340851" cy="76.34276878833771" rx="1.3714286088943481" ry="1.3714286088943481" fill="#2AFFCA" fill-opacity="1"/></g><g style="mix-blend-mode:passthrough"><ellipse cx="61.71428692340851" cy="76.34276878833771" rx="1.3714286088943481" ry="1.3714286088943481" fill="#2AFFCA" fill-opacity="1"/></g></g></g><g style="mix-blend-mode:passthrough"><g style="mix-blend-mode:passthrough"><g style="mix-blend-mode:passthrough" filter="url(#master_svgp_3526_52826)"><ellipse cx="70.8571435213089" cy="80.00000250339508" rx="1.3714286088943481" ry="1.3714286088943481" fill="#2AFFCA" fill-opacity="1"/></g><g style="mix-blend-mode:passthrough"><ellipse cx="70.8571435213089" cy="80.00000250339508" rx="1.3714286088943481" ry="1.3714286088943481" fill="#2AFFCA" fill-opacity="1"/></g></g><g style="mix-blend-mode:passthrough"><g style="mix-blend-mode:passthrough" filter="url(#master_svgq_3526_52829)"><ellipse cx="70.8571435213089" cy="75.42857372760773" rx="1.3714286088943481" ry="1.3714286088943481" fill="#2AFFCA" fill-opacity="1"/></g><g style="mix-blend-mode:passthrough"><ellipse cx="70.8571435213089" cy="75.42857372760773" rx="1.3714286088943481" ry="1.3714286088943481" fill="#2AFFCA" fill-opacity="1"/></g></g><g style="mix-blend-mode:passthrough"><g style="mix-blend-mode:passthrough" filter="url(#master_svgr_3526_52832)"><ellipse cx="70.8571435213089" cy="70.85714495182037" rx="1.3714286088943481" ry="1.3714286088943481" fill="#2AFFCA" fill-opacity="1"/></g><g style="mix-blend-mode:passthrough"><ellipse cx="70.8571435213089" cy="70.85714495182037" rx="1.3714286088943481" ry="1.3714286088943481" fill="#2AFFCA" fill-opacity="1"/></g></g></g><g style="mix-blend-mode:passthrough"><g style="mix-blend-mode:passthrough"><g style="mix-blend-mode:passthrough" filter="url(#master_svgs_3526_52836)"><ellipse cx="79.08571255207062" cy="74.51428812742233" rx="1.3714286088943481" ry="1.3714286088943481" fill="#2AFFCA" fill-opacity="1"/></g><g style="mix-blend-mode:passthrough"><ellipse cx="79.08571255207062" cy="74.51428812742233" rx="1.3714286088943481" ry="1.3714286088943481" fill="#2AFFCA" fill-opacity="1"/></g></g><g style="mix-blend-mode:passthrough"><g style="mix-blend-mode:passthrough" filter="url(#master_svgt_3526_52839)"><ellipse cx="79.08571255207062" cy="69.94285935163498" rx="1.3714286088943481" ry="1.3714286088943481" fill="#2AFFCA" fill-opacity="1"/></g><g style="mix-blend-mode:passthrough"><ellipse cx="79.08571255207062" cy="69.94285935163498" rx="1.3714286088943481" ry="1.3714286088943481" fill="#2AFFCA" fill-opacity="1"/></g></g><g style="mix-blend-mode:passthrough"><g style="mix-blend-mode:passthrough" filter="url(#master_svgu_3526_52842)"><ellipse cx="79.08571255207062" cy="65.37143057584763" rx="1.3714286088943481" ry="1.3714286088943481" fill="#2AFFCA" fill-opacity="1"/></g><g style="mix-blend-mode:passthrough"><ellipse cx="79.08571255207062" cy="65.37143057584763" rx="1.3714286088943481" ry="1.3714286088943481" fill="#2AFFCA" fill-opacity="1"/></g></g></g></g><g transform="matrix(-1,0,0,1,192,0)"><g><g><path d="M192,61.25717131958008L144.1693,88.68567131958008L96,61.25717131958008L143.8533,33.82857131958008L192,61.25717131958008Z" fill="#14B8BE" fill-opacity="1"/></g></g></g><g transform="matrix(-1,0,0,1,192,0)"><g><g style="mix-blend-mode:passthrough"><path d="M192,53.02860038146973L144.1693,80.45710038146973L96,53.02860038146973L143.8533,25.600000381469727L192,53.02860038146973Z" fill="url(#master_svgv_3417_594007)" fill-opacity="1"/><path d="M191.078,52.50330038146973L192,53.02860038146973L191.0795,53.55640038146973L144.1693,80.45710038146973L96.922303,53.55380038146973L96,53.02860038146973L96.920811,52.50080038146973L143.8533,25.600000381469727L191.078,52.50330038146973ZM143.8547,26.653030381469726L190.1575,53.03120038146973L144.1677,79.40410038146973L97.84311,53.02600038146973L143.8547,26.653030381469726Z" fill-rule="evenodd" fill="url(#master_svgw_3417_594325)" fill-opacity="1"/></g><g style="mix-blend-mode:passthrough" transform="matrix(-1,0,0,1,351.08570861816406,0)"><path d="M175.54285430908203,53.0286L238.62855430908203,53.0286L238.62855430908203,0L175.54285430908203,0L175.54285430908203,53.0286Z" fill="url(#master_svgx_3417_595973)" fill-opacity="1"/></g><g style="mix-blend-mode:passthrough"><path d="M175.54284378356934,53.02855888671875L144.11124378356934,71.31425888671875L112.45714378356934,53.02855888671875L143.90354378356935,34.74285888671875L175.54284378356934,53.02855888671875Z" fill="url(#master_svgy_3417_595913)" fill-opacity="1"/></g></g><g style="mix-blend-mode:passthrough" transform="matrix(-1,0,0,1,384,0)"><path d="M192,53.02857208251953L192,61.25714208251953L239.5429,88.68567208251953L239.5429,80.45717208251953L192,53.02857208251953Z" fill="url(#master_svgz_3417_596652)" fill-opacity="1"/></g><g style="mix-blend-mode:passthrough"><path d="M96,61.25714208251953L144.4571,88.68567208251953L144.4571,80.45717208251953L96,53.02857208251953L96,61.25714208251953Z" fill="url(#master_svg10_3417_595619)" fill-opacity="1"/></g></g></g></g><g transform="matrix(-1,0,0,1,138.971435546875,0)"><g><g><path d="M108.2878177734375,26.04137143878937C108.3146177734375,26.04137143878937,108.34131777343751,26.014871438789367,108.36811777343749,26.014871438789367C108.3948177734375,26.014871438789367,108.3948177734375,26.014871438789367,108.4216177734375,25.98827143878937C108.4484177734375,25.98827143878937,108.4484177734375,25.98827143878937,108.4751177734375,25.98827143878937Q108.5019177734375,25.98827143878937,108.5286177734375,25.98827143878937L108.5554177734375,25.98827143878937C108.58221777343749,25.98827143878937,108.6089177734375,25.98827143878937,108.6357177734375,25.98827143878937Q108.6357177734375,25.98827143878937,108.6624177734375,25.98827143878937C108.68921777343749,25.98827143878937,108.7160177734375,25.98827143878937,108.7427177734375,25.98827143878937L108.7695177734375,25.98827143878937C108.7963177734375,25.98827143878937,108.8230177734375,25.98827143878937,108.84981777343751,26.014871438789367L108.8765177734375,26.014871438789367C108.9033177734375,26.014871438789367,108.9300177734375,26.04137143878937,108.9568177734375,26.04137143878937L101.4105177734375,21.687271438789367Q101.3837177734375,21.687271438789367,101.3570177734375,21.660771438789368L101.3302177734375,21.660771438789368L101.3034177734375,21.660771438789368L101.2767177734375,21.660771438789368L101.2499177734375,21.660771438789368C101.2232177734375,21.660771438789368,101.1964177734375,21.660771438789368,101.1696177734375,21.660771438789368Q101.1696177734375,21.660771438789368,101.1429177734375,21.660771438789368Q101.11611777343751,21.660771438789368,101.0894177734375,21.660771438789368Q101.0894177734375,21.660771438789368,101.0626177734375,21.660771438789368L101.0358177734375,21.660771438789368L101.0091177734375,21.660771438789368L100.9823177734375,21.660771438789368C100.9556177734375,21.660771438789368,100.9556177734375,21.660771438789368,100.9288177734375,21.660771438789368L100.9020177734375,21.660771438789368L100.8753177734375,21.660771438789368C100.8485177734375,21.660771438789368,100.8218177734375,21.687271438789367,100.79501777343751,21.687271438789367L100.7682177734375,21.687271438789367Q100.7682177734375,21.687271438789367,100.7415177734375,21.687271438789367C100.68801777343751,21.71387143878937,100.6344177734375,21.740371438789367,100.5809177734375,21.76697143878937C100.52741777343749,21.793471438789368,100.4739177734375,21.820071438789366,100.42041777343749,21.873171438789367C100.1260177734375,22.08557143878937,99.8316177734375,22.271371438789366,99.5105177734375,22.457271438789366L94.1585177734375,19.40407143878937C94.2120177734375,19.430671438789368,94.2655177734375,19.48377143878937,94.31901777343751,19.53687143878937C94.5331177734375,19.775771438789366,94.77401777343749,19.961671438789367,95.0148177734375,20.12087143878937L99.2964177734375,22.589971438789366C99.1091177734375,22.696171438789367,98.9485177734375,22.775871438789366,98.7612177734375,22.882071438789367C98.7345177734375,22.908571438789366,98.70771777343751,22.908571438789366,98.6809177734375,22.935171438789368C98.4936177734375,23.014771438789367,98.3331177734375,23.094371438789366,98.1725177734375,23.17407143878937C98.1457177734375,23.200571438789368,98.0922177734375,23.200571438789368,98.0655177734375,23.227171438789366C97.9317177734375,23.280271438789367,97.7978177734375,23.333371438789367,97.6908177734375,23.35987143878937C97.6641177734375,23.35987143878937,97.6373177734375,23.386471438789368,97.6105177734375,23.386471438789368C97.45001777343751,23.43957143878937,97.3162177734375,23.49267143878937,97.18241777343749,23.519171438789368C97.1288177734375,23.519171438789368,97.1021177734375,23.545771438789366,97.0486177734375,23.545771438789366C96.9683177734375,23.572271438789368,96.9148177734375,23.572271438789368,96.8345177734375,23.598871438789367C96.7810177734375,23.598871438789367,96.72741777343751,23.62537143878937,96.6739177734375,23.62537143878937C96.5936177734375,23.651971438789367,96.5401177734375,23.651971438789367,96.45981777343749,23.651971438789367C96.40631777343751,23.651971438789367,96.3528177734375,23.67847143878937,96.29931777343751,23.67847143878937C96.2458177734375,23.67847143878937,96.1922177734375,23.705071438789368,96.13871777343749,23.705071438789368C96.0852177734375,23.705071438789368,96.03171777343749,23.705071438789368,95.9782177734375,23.731571438789366C95.9246177734375,23.731571438789366,95.8711177734375,23.731571438789366,95.8176177734375,23.731571438789366C95.7641177734375,23.731571438789366,95.7373177734375,23.731571438789366,95.6838177734375,23.731571438789366C95.5232177734375,23.731571438789366,95.3627177734375,23.731571438789366,95.2021177734375,23.731571438789366C95.1754177734375,23.731571438789366,95.14861777343751,23.731571438789366,95.1218177734375,23.731571438789366C94.9613177734375,23.731571438789366,94.8007177734375,23.705071438789368,94.6669177734375,23.67847143878937L94.6402177734375,23.67847143878937C94.5064177734375,23.651971438789367,94.3726177734375,23.62537143878937,94.2388177734375,23.598871438789367C94.1852177734375,23.598871438789367,94.1585177734375,23.572271438789368,94.1050177734375,23.572271438789368Q94.1050177734375,23.572271438789368,94.0782177734375,23.572271438789368C94.05141777343749,23.572271438789368,94.0247177734375,23.572271438789368,93.9979177734375,23.545771438789366C93.9712177734375,23.545771438789366,93.9444177734375,23.545771438789366,93.9176177734375,23.545771438789366Q93.89091777343751,23.545771438789366,93.8641177734375,23.545771438789366C93.8374177734375,23.545771438789366,93.8106177734375,23.545771438789366,93.7571177734375,23.545771438789366L93.73031777343749,23.545771438789366L93.7036177734375,23.545771438789366C93.6768177734375,23.545771438789366,93.6500177734375,23.545771438789366,93.6500177734375,23.572271438789368C93.62331777343749,23.572271438789368,93.5965177734375,23.598871438789367,93.5430177734375,23.598871438789367C93.5162177734375,23.598871438789367,93.5162177734375,23.598871438789367,93.4895177734375,23.62537143878937Q93.4895177734375,23.62537143878937,93.4627177734375,23.62537143878937C93.4092177734375,23.651971438789367,93.3289177734375,23.67847143878937,93.2754177734375,23.705071438789368C93.1951177734375,23.75817143878937,93.1416177734375,23.784671438789367,93.06131777343751,23.837771438789368C93.0346177734375,23.837771438789368,93.0078177734375,23.864371438789366,92.9810177734375,23.864371438789366C92.9275177734375,23.890871438789368,92.8740177734375,23.94397143878937,92.8472177734375,23.99707143878937C92.79371777343749,24.050171438789366,92.74021777343751,24.103271438789367,92.7134177734375,24.156371438789368L92.6867177734375,24.182971438789366L92.6599177734375,24.209471438789368C92.63321777343751,24.236071438789367,92.63321777343751,24.26257143878937,92.6064177734375,24.26257143878937C92.5796177734375,24.289171438789367,92.5529177734375,24.342271438789368,92.5261177734375,24.368771438789366C92.5261177734375,24.39537143878937,92.4994177734375,24.39537143878937,92.4994177734375,24.421871438789367C92.4458177734375,24.528071438789368,92.36561777343749,24.607671438789367,92.2853177734375,24.71387143878937C92.1247177734375,24.95287143878937,91.9642177734375,25.165271438789368,91.7768177734375,25.377671438789367C91.7501177734375,25.40417143878937,91.7233177734375,25.430771438789368,91.6966177734375,25.457271438789366C91.48251777343751,25.72277143878937,91.2952177734375,25.961771438789366,91.0811177734375,26.200671438789367C91.0543177734375,26.227171438789366,91.0276177734375,26.253771438789368,91.0276177734375,26.280271438789367C90.8938177734375,26.43957143878937,90.7600177734375,26.572371438789368,90.6262177734375,26.731671438789366C90.5994177734375,26.75817143878937,90.5726177734375,26.784771438789367,90.5459177734375,26.837871438789367C90.4388177734375,26.970571438789367,90.3050177734375,27.07677143878937,90.1980177734375,27.182971438789366C90.1712177734375,27.209571438789368,90.1177177734375,27.26267143878937,90.0910177734375,27.289171438789367C90.0374177734375,27.342271438789368,89.95721777343749,27.39537143878937,89.9036177734375,27.475071438789367C89.8501177734375,27.528171438789368,89.7966177734375,27.58127143878937,89.7431177734375,27.63437143878937C89.6896177734375,27.687371438789366,89.6093177734375,27.740471438789367,89.5558177734375,27.793571438789368C89.50221777343751,27.846671438789368,89.4487177734375,27.89977143878937,89.39521777343751,27.926371438789367C89.3417177734375,27.979471438789368,89.2614177734375,28.03257143878937,89.2079177734375,28.08567143878937C89.1544177734375,28.138771438789366,89.1008177734375,28.165271438789368,89.0473177734375,28.21837143878937C88.9938177734375,28.27147143878937,88.9135177734375,28.324571438789366,88.8600177734375,28.377671438789367C88.80651777343749,28.430771438789368,88.7530177734375,28.457371438789366,88.6994177734375,28.510471438789367C88.6192177734375,28.563571438789367,88.5656177734375,28.616671438789368,88.4854177734375,28.66977143878937C88.4318177734375,28.696271438789367,88.3783177734375,28.749371438789368,88.3248177734375,28.775971438789366C88.24451777343751,28.829071438789367,88.1910177734375,28.882171438789367,88.1107177734375,28.935271438789368C88.0572177734375,28.961771438789366,88.0037177734375,28.98837143878937,87.97691777343749,29.04147143878937C87.8966177734375,29.094471438789366,87.81641777343751,29.147571438789367,87.7361177734375,29.200671438789367C87.7093177734375,29.22727143878937,87.6558177734375,29.253771438789368,87.6290177734375,29.280371438789366C87.5487177734375,29.333471438789367,87.4952177734375,29.35997143878937,87.41491777343751,29.413071438789366L82.0629177734375,26.333371438789367C82.1165177734375,26.35997143878937,82.17001777343751,26.413071438789366,82.2235177734375,26.466171438789367C82.4376177734375,26.705071438789368,82.6784177734375,26.890971438789368,82.9193177734375,27.050271438789366L87.2009177734375,29.519271438789367C87.0135177734375,29.62547143878937,86.8530177734375,29.705171438789367,86.6657177734375,29.81137143878937C86.6389177734375,29.837871438789367,86.6121177734375,29.837871438789367,86.5854177734375,29.86447143878937C86.3981177734375,29.94407143878937,86.2375177734375,30.023771438789367,86.0769177734375,30.103371438789367C86.0502177734375,30.12997143878937,85.9967177734375,30.12997143878937,85.9699177734375,30.156471438789367C85.83611777343751,30.209571438789368,85.7023177734375,30.26267143878937,85.5953177734375,30.289271438789367C85.56851777343749,30.289271438789367,85.5417177734375,30.31577143878937,85.5150177734375,30.31577143878937C85.3812177734375,30.368871438789366,85.2206177734375,30.421971438789367,85.0868177734375,30.44857143878937C85.0333177734375,30.44857143878937,85.0065177734375,30.475071438789367,84.9530177734375,30.475071438789367C84.8727177734375,30.50167143878937,84.8192177734375,30.50167143878937,84.73891777343749,30.528171438789368C84.6854177734375,30.528171438789368,84.6319177734375,30.554771438789366,84.57841777343751,30.554771438789366C84.4981177734375,30.58127143878937,84.4446177734375,30.58127143878937,84.3643177734375,30.58127143878937C84.3108177734375,30.58127143878937,84.2573177734375,30.607771438789367,84.2037177734375,30.607771438789367C84.1502177734375,30.607771438789367,84.0967177734375,30.63437143878937,84.0432177734375,30.63437143878937C83.9897177734375,30.63437143878937,83.9361177734375,30.63437143878937,83.8826177734375,30.660871438789368C83.8291177734375,30.660871438789368,83.7756177734375,30.660871438789368,83.7221177734375,30.660871438789368C83.6685177734375,30.660871438789368,83.6150177734375,30.660871438789368,83.5615177734375,30.660871438789368C83.5080177734375,30.660871438789368,83.48121777343749,30.660871438789368,83.42771777343751,30.660871438789368C83.3742177734375,30.660871438789368,83.32071777343751,30.660871438789368,83.2671177734375,30.660871438789368C83.2136177734375,30.660871438789368,83.1869177734375,30.660871438789368,83.1333177734375,30.660871438789368C83.1066177734375,30.660871438789368,83.05311777343749,30.660871438789368,83.0263177734375,30.660871438789368C82.8657177734375,30.660871438789368,82.7052177734375,30.63437143878937,82.5714177734375,30.607771438789367C82.5446177734375,30.607771438789367,82.5446177734375,30.607771438789367,82.5179177734375,30.607771438789367C82.3841177734375,30.58127143878937,82.2770177734375,30.554771438789366,82.1432177734375,30.528171438789368C82.0897177734375,30.50167143878937,82.0362177734375,30.50167143878937,81.9827177734375,30.475071438789367Q81.9827177734375,30.475071438789367,81.9559177734375,30.475071438789367C81.9291177734375,30.475071438789367,81.9024177734375,30.475071438789367,81.8756177734375,30.44857143878937C81.8489177734375,30.44857143878937,81.8221177734375,30.44857143878937,81.7953177734375,30.44857143878937Q81.7686177734375,30.44857143878937,81.7418177734375,30.44857143878937C81.7151177734375,30.44857143878937,81.6883177734375,30.44857143878937,81.6348177734375,30.44857143878937L81.6080177734375,30.44857143878937L81.5813177734375,30.44857143878937C81.5545177734375,30.44857143878937,81.5277177734375,30.44857143878937,81.5277177734375,30.475071438789367C81.5010177734375,30.475071438789367,81.4742177734375,30.50167143878937,81.4475177734375,30.50167143878937C81.4207177734375,30.50167143878937,81.4207177734375,30.50167143878937,81.3939177734375,30.528171438789368Q81.3939177734375,30.528171438789368,81.3672177734375,30.528171438789368C81.3137177734375,30.554771438789366,81.2334177734375,30.58127143878937,81.1799177734375,30.607771438789367C81.0996177734375,30.660871438789368,81.0461177734375,30.687471438789366,80.9658177734375,30.740571438789367C80.9390177734375,30.76707143878937,80.91231777343751,30.793671438789367,80.8855177734375,30.793671438789367C80.8320177734375,30.820171438789366,80.7785177734375,30.873271438789367,80.7517177734375,30.926371438789367C80.6982177734375,30.979471438789368,80.6447177734375,31.03257143878937,80.6179177734375,31.08567143878937L80.5911177734375,31.112271438789367L80.5644177734375,31.138771438789366C80.5376177734375,31.165371438789368,80.5376177734375,31.191871438789367,80.5109177734375,31.191871438789367C80.4841177734375,31.21847143878937,80.4573177734375,31.27157143878937,80.4306177734375,31.298071438789368C80.4306177734375,31.324671438789366,80.4038177734375,31.324671438789366,80.4038177734375,31.35117143878937C80.3503177734375,31.457371438789366,80.2700177734375,31.53707143878937,80.2165177734375,31.643271438789366C80.0559177734375,31.882171438789367,79.8954177734375,32.094571438789366,79.7081177734375,32.30697143878937C79.6813177734375,32.33347143878937,79.6545177734375,32.36007143878937,79.6278177734375,32.41317143878936C79.4137077734375,32.678671438789365,79.2263877734375,32.917571438789366,79.0123077734375,33.15657143878937C78.9855477734375,33.18307143878937,78.9587877734375,33.20967143878937,78.9587877734375,33.23617143878937C78.8249877734375,33.39547143878937,78.6911877734375,33.52827143878937,78.5573877734375,33.687471438789366C78.5306277734375,33.71407143878937,78.5038677734375,33.74057143878937,78.4771077734375,33.76717143878937C78.3700677734375,33.89987143878937,78.2362677734375,34.00607143878937,78.12922777343749,34.11227143878937C78.0757077734375,34.165371438789364,78.0489477734375,34.191971438789366,77.9954277734375,34.24507143878937C77.94190777343749,34.29817143878937,77.8616277734375,34.35127143878937,77.8080977734375,34.43087143878937C77.75458777343749,34.48397143878937,77.7010677734375,34.53707143878937,77.6475377734375,34.59017143878937C77.5940177734375,34.64327143878937,77.5137377734375,34.69637143878937,77.4602177734375,34.74947143878937C77.4066977734375,34.802571438789364,77.3531777734375,34.855671438789365,77.2996577734375,34.88227143878937C77.2461377734375,34.93537143878937,77.1658577734375,34.98847143878937,77.1123377734375,35.04157143878937L77.0855777734375,35.06807143878937C77.0855777734375,35.01497143878937,77.0855777734375,34.961871438789366,77.0855777734375,34.93537143878937C77.0855777734375,34.88227143878937,77.0855777734375,34.829171438789366,77.0855777734375,34.776071438789366C77.0855777734375,34.669871438789365,77.0855777734375,34.56367143878937,77.0855777734375,34.45747143878937C77.0855777734375,34.40437143878937,77.0855777734375,34.37777143878937,77.0855777734375,34.324671438789366C77.0855777734375,34.165371438789364,77.0855777734375,34.00607143878937,77.1123377734375,33.84677143878937C77.1123377734375,33.82027143878937,77.1123377734375,33.82027143878937,77.1123377734375,33.79367143878937C77.1123377734375,33.63437143878937,77.1390977734375,33.50167143878937,77.1658577734375,33.34237143878937C77.1658577734375,33.28927143878937,77.1926177734375,33.23617143878937,77.1926177734375,33.20967143878937C77.2193777734375,33.07687143878937,77.2461377734375,32.97067143878937,77.2461377734375,32.83797143878937C77.2461377734375,32.78487143878937,77.2728977734375,32.731771438789366,77.2728977734375,32.678671438789365C77.2996577734375,32.59897143878936,77.2996577734375,32.51937143878936,77.3264177734375,32.43967143878937C77.3531877734375,32.30697143878937,77.3799477734375,32.17417143878937,77.4334577734375,32.04147143878937C77.4869877734375,31.882171438789367,77.5137377734375,31.749471438789367,77.5672577734375,31.59017143878937L80.3503177734375,23.705071438789368C80.3771177734375,23.598871438789367,80.4306177734375,23.519171438789368,80.4573177734375,23.412971438789366C80.4841177734375,23.35987143878937,80.5109177734375,23.30677143878937,80.5376177734375,23.227171438789366C80.5644177734375,23.17407143878937,80.5911177734375,23.12097143878937,80.6179177734375,23.067871438789368C80.6447177734375,23.014771438789367,80.6714177734375,22.961671438789367,80.6982177734375,22.908571438789366C80.7249177734375,22.85547143878937,80.7517177734375,22.80237143878937,80.7785177734375,22.749271438789368C80.8052177734375,22.696171438789367,80.8320177734375,22.643071438789367,80.8587177734375,22.589971438789366C80.8855177734375,22.53687143878937,80.91231777343751,22.48377143878937,80.9390177734375,22.430671438789368C80.9658177734375,22.377571438789367,80.9925177734375,22.324471438789367,81.0193177734375,22.271371438789366C81.0461177734375,22.21827143878937,81.07281777343749,22.16517143878937,81.0996177734375,22.112071438789368C81.1263177734375,22.058971438789367,81.1799177734375,22.005871438789367,81.2066177734375,21.952771438789366C81.2334177734375,21.89967143878937,81.2601177734375,21.84657143878937,81.3137177734375,21.793471438789368C81.3672177734375,21.740371438789367,81.3939177734375,21.660771438789368,81.4475177734375,21.607671438789367C81.4742177734375,21.554571438789367,81.5010177734375,21.528071438789368,81.5277177734375,21.474971438789368C81.5813177734375,21.39527143878937,81.6615177734375,21.289071438789367,81.7151177734375,21.209471438789368C81.7418177734375,21.182871438789366,81.7418177734375,21.182871438789366,81.7686177734375,21.156371438789368C81.8489177734375,21.050171438789366,81.9559177734375,20.917371438789367,82.0362177734375,20.81117143878937C82.0629177734375,20.784671438789367,82.0897177734375,20.75807143878937,82.0897177734375,20.731571438789366C82.2235177734375,20.598771438789367,82.33051777343749,20.466071438789367,82.4643177734375,20.333271438789367C82.4911177734375,20.30677143878937,82.4911177734375,20.30677143878937,82.5179177734375,20.30677143878937C82.5981177734375,20.227071438789366,82.6784177734375,20.147471438789367,82.7587177734375,20.067771438789368C82.7855177734375,20.04127143878937,82.8122177734375,20.014771438789367,82.8657177734375,19.98817143878937C82.9193177734375,19.935071438789368,82.9995177734375,19.881971438789368,83.0798177734375,19.828871438789367C83.1066177734375,19.80237143878937,83.1601177734375,19.775771438789366,83.1869177734375,19.749271438789368C83.2671177734375,19.696171438789367,83.32071777343751,19.643071438789367,83.4009177734375,19.589971438789366C83.42771777343751,19.563371438789368,83.4545177734375,19.53687143878937,83.5080177734375,19.510271438789367C83.6150177734375,19.430671438789368,83.7221177734375,19.377571438789367,83.8291177734375,19.324471438789367L105.7456177734375,6.766711438789367C105.8526177734375,6.687061438789367,105.9864177734375,6.633961438789368,106.0935177734375,6.580861438789368C106.1202177734375,6.554311438789368,106.1470177734375,6.554311438789368,106.2005177734375,6.527761438789367C106.4146177734375,6.421571438789368,106.6287177734375,6.368471438789368,106.8428177734375,6.315371438789367C106.8963177734375,6.288821438789368,106.9498177734375,6.288821438789368,107.0033177734375,6.288821438789368C107.08361777343751,6.288821438789368,107.1371177734375,6.262271438789368,107.21741777343749,6.262271438789368C107.2709177734375,6.262271438789368,107.2977177734375,6.262271438789368,107.3244177734375,6.262271438789368C107.4047177734375,6.262271438789368,107.4850177734375,6.262271438789368,107.5653177734375,6.262271438789368C107.5920177734375,6.262271438789368,107.6188177734375,6.262271438789368,107.6456177734375,6.262271438789368C107.75261777343749,6.262271438789368,107.8329177734375,6.288821438789368,107.9399177734375,6.288821438789368C107.9667177734375,6.288821438789368,107.9934177734375,6.288821438789368,107.9934177734375,6.315371438789367C108.0737177734375,6.341921438789368,108.1540177734375,6.341921438789368,108.2075177734375,6.368471438789368Q108.23431777343751,6.368471438789368,108.2610177734375,6.395021438789367C108.34131777343751,6.421571438789368,108.4484177734375,6.474671438789367,108.5286177734375,6.527761438789367L100.8753177734375,2.0940624387893676L100.8485177734375,2.0940624387893676C100.79501777343751,2.0675134387893674,100.7147177734375,2.0409644387893677,100.6612177734375,1.9878664387893676C100.6344177734375,1.9878664387893676,100.6344177734375,1.9878664387893676,100.6077177734375,1.9613174387893677Q100.5809177734375,1.9613174387893677,100.5541177734375,1.9347684387893678C100.52741777343749,1.9347684387893678,100.5006177734375,1.9082188387893677,100.4471177734375,1.9082188387893677C100.3936177734375,1.9082188387893677,100.3668177734375,1.8816697387893677,100.3133177734375,1.8816697387893677C100.2865177734375,1.8816697387893677,100.2598177734375,1.8816697387893677,100.2598177734375,1.8551205387893677L100.2330177734375,1.8551205387893677C100.1527177734375,1.8551205387893677,100.0725177734375,1.8285714427454978,99.9922177734375,1.8285714427454978L99.96541777343751,1.8285714427454978C99.9387177734375,1.8285714427454978,99.9119177734375,1.8285714427454978,99.8851177734375,1.8285714427454978C99.8316177734375,1.8285714427454978,99.7781177734375,1.8285714427454978,99.7246177734375,1.8285714427454978C99.69781777343749,1.8285714427454978,99.6711177734375,1.8285714427454978,99.6443177734375,1.8285714427454978C99.6175177734375,1.8285714427454978,99.5640177734375,1.8285714427454978,99.53731777343751,1.8285714427454978C99.5105177734375,1.8285714427454978,99.4837177734375,1.8285714427454978,99.4302177734375,1.8285714427454978C99.4035177734375,1.8285714427454978,99.3499177734375,1.8551205387893677,99.3232177734375,1.8551205387893677C99.26971777343749,1.8551205387893677,99.2161177734375,1.8816697387893677,99.1626177734375,1.8816697387893677C99.1359177734375,1.8816697387893677,99.1091177734375,1.8816697387893677,99.0823177734375,1.9082188387893677C98.9218177734375,1.9613174387893677,98.7880177734375,1.9878664387893676,98.6274177734375,2.0675134387893674C98.6007177734375,2.0940624387893676,98.54711777343749,2.0940624387893676,98.5204177734375,2.1206114387893678C98.4936177734375,2.1471614387893676,98.4669177734375,2.1471614387893676,98.4133177734375,2.1737104387893678C98.3063177734375,2.2268084387893676,98.1725177734375,2.2799064387893675,98.0655177734375,2.3595544387893677L76.2024977734375,14.917271438789367C76.0954577734375,14.970371438789368,75.9884177734375,15.050071438789368,75.8813777734375,15.103171438789367C75.8546177734375,15.129671438789368,75.8278577734375,15.156271438789368,75.7743377734375,15.182771438789368C75.69405777343749,15.235871438789367,75.6405377734375,15.288971438789368,75.5602577734375,15.342071438789368C75.5334977734375,15.368671438789368,75.4799777734375,15.395171438789367,75.4532177734375,15.421771438789367C75.3729377734375,15.474771438789368,75.3194177734375,15.527871438789367,75.2391377734375,15.580971438789367C75.2123777734375,15.607571438789368,75.1856177734375,15.634071438789368,75.1320977734375,15.660671438789368C75.0518177734375,15.740271438789367,74.9715277734375,15.819971438789368,74.8912577734375,15.899571438789367L74.8644877734375,15.926171438789368C74.7306877734375,16.058871438789367,74.5968877734375,16.191671438789367,74.4898477734375,16.324371438789367C74.4898477734375,16.350971438789365,74.4630877734375,16.350971438789365,74.4630877734375,16.377471438789367L74.4363277734375,16.404071438789366C74.3292877734375,16.510271438789367,74.2490077734375,16.616471438789368,74.1687277734375,16.749171438789368C74.1687277734375,16.77577143878937,74.1419677734375,16.77577143878937,74.1419677734375,16.80227143878937C74.0884477734375,16.881971438789368,74.0081677734375,16.988171438789365,73.9546477734375,17.067771438789368L73.9278877734375,17.09427143878937C73.9011277734375,17.120871438789365,73.8743677734375,17.147371438789367,73.8743677734375,17.200471438789368C73.8208477734375,17.25357143878937,73.7940877734375,17.333271438789367,73.7405677734375,17.386371438789368C73.7405677734375,17.412871438789367,73.7138077734375,17.412871438789367,73.7138077734375,17.43947143878937C73.6870477734375,17.465971438789367,73.6602877734375,17.519071438789368,73.6602877734375,17.54567143878937C73.63352777343749,17.59877143878937,73.5800077734375,17.651871438789367,73.5532477734375,17.704971438789368C73.5532477734375,17.73147143878937,73.5264877734375,17.73147143878937,73.5264877734375,17.75807143878937C73.4997277734375,17.784571438789367,73.4997277734375,17.837671438789368,73.4729677734375,17.864271438789366C73.4462077734375,17.917371438789367,73.4194477734375,17.970471438789367,73.3926877734375,18.023571438789368C73.3926877734375,18.050071438789367,73.3659277734375,18.050071438789367,73.3659277734375,18.07667143878937C73.3391677734375,18.103171438789367,73.3391677734375,18.156271438789368,73.3124077734375,18.182871438789366C73.2856477734375,18.235971438789367,73.2588877734375,18.289071438789367,73.2321277734375,18.342171438789368C73.2321277734375,18.368671438789367,73.2053677734375,18.368671438789367,73.2053677734375,18.39527143878937C73.1786077734375,18.421771438789367,73.1786077734375,18.474871438789368,73.1518477734375,18.501471438789366C73.1250877734375,18.554571438789367,73.0983277734375,18.607571438789368,73.0715677734375,18.660671438789368C73.0715677734375,18.687271438789367,73.0448077734375,18.687271438789367,73.0448077734375,18.71377143878937C73.0180477734375,18.740371438789367,73.0180477734375,18.793471438789368,72.9912877734375,18.819971438789366C72.9645277734375,18.873071438789367,72.9377677734375,18.926171438789368,72.9110077734375,19.005871438789367C72.9110077734375,19.03237143878937,72.8842477734375,19.03237143878937,72.8842477734375,19.058971438789367C72.8574877734375,19.138571438789366,72.8307277734375,19.21827143878937,72.8039677734375,19.297871438789368L69.9673987734375,27.182971438789366C69.9406387734375,27.289171438789367,69.8871187734375,27.421971438789367,69.8603587734375,27.528171438789368C69.8603587734375,27.554671438789367,69.8335987734375,27.607771438789367,69.8335987734375,27.63437143878937C69.8068387734375,27.76707143878937,69.7533187734375,27.89977143878937,69.7265587734375,28.03257143878937C69.7265587734375,28.08567143878937,69.6997987734375,28.138771438789366,69.6730377734375,28.191871438789367C69.6730377734375,28.21837143878937,69.6730377734375,28.244971438789367,69.6462777734375,28.27147143878937C69.6462777734375,28.324571438789366,69.6195177734375,28.377671438789367,69.6195177734375,28.430771438789368C69.5927577734375,28.563571438789367,69.5659979734375,28.696271438789367,69.5659979734375,28.802471438789368C69.5659979734375,28.85557143878937,69.5392378734375,28.90867143878937,69.5392378734375,28.935271438789368C69.5392378734375,28.961771438789366,69.5392378734375,28.98837143878937,69.5392378734375,29.014871438789367C69.5124778734375,29.147671438789367,69.5124778734375,29.253871438789368,69.5124778734375,29.386571438789368C69.5124778734375,29.413071438789366,69.5124778734375,29.413071438789366,69.5124778734375,29.439671438789368C69.5124778734375,29.598971438789366,69.4857177614748,29.758271438789368,69.4857177614748,29.917571438789366C69.4857177614748,29.970671438789367,69.4857177614748,29.99717143878937,69.4857177614748,30.050271438789366C69.4857177614748,30.156471438789367,69.4857177614748,30.26267143878937,69.4857177614748,30.368871438789366C69.4857177614748,30.421971438789367,69.4857177614748,30.475071438789367,69.4857177614748,30.528171438789368C69.4857177614748,30.63437143878937,69.5124778734375,30.740571438789367,69.5124778734375,30.820171438789366C69.5124778734375,30.873271438789367,69.5124778734375,30.89987143878937,69.5392378734375,30.95297143878937C69.5659979734375,31.08567143878937,69.5659979734375,31.21847143878937,69.5927577734375,31.324671438789366L69.5927577734375,31.35117143878937C69.6195177734375,31.483971438789368,69.6462777734375,31.616671438789368,69.6730377734375,31.749471438789367C69.6730377734375,31.775971438789366,69.6997987734375,31.829071438789367,69.6997987734375,31.85567143878937C69.7265587734375,31.935271438789368,69.7533187734375,32.01497143878937,69.7800787734375,32.12117143878937C69.8068387734375,32.17427143878937,69.8068387734375,32.20077143878937,69.8335987734375,32.25387143878937C69.8603587734375,32.33347143878937,69.8871187734375,32.41317143878936,69.9406387734375,32.49277143878937C69.9673987734375,32.51937143878936,69.9673987734375,32.572471438789364,69.9941587734375,32.59897143878936C70.0476797734375,32.705171438789364,70.1011997734375,32.811371438789365,70.1547197734375,32.89107143878937C70.2082397734375,32.99727143878937,70.2885197734375,33.07687143878937,70.3420397734375,33.15657143878937C70.3687997734375,33.18307143878937,70.3955597734375,33.20967143878937,70.3955597734375,33.23617143878937C70.4490807734375,33.28927143878937,70.5025977734375,33.34237143878937,70.5561177734375,33.39547143878937C70.5828777734375,33.42207143878937,70.6096377734375,33.44857143878937,70.6363977734375,33.47517143878937C70.6899177734375,33.52827143878937,70.7434377734375,33.58137143878937,70.7969577734375,33.63447143878937C70.8237177734375,33.66097143878937,70.8504777734375,33.68757143878937,70.8772377734375,33.68757143878937C70.9575177734375,33.74067143878936,71.0377977734375,33.82027143878937,71.1448377734375,33.87337143878937L75.2658877734375,36.236271438789366C75.2123777734375,36.262771438789365,75.1588577734375,36.315871438789365,75.0785677734375,36.34247143878937C74.7306877734375,36.55487143878937,74.3828077734375,36.714171438789364,74.0349277734375,36.87337143878937C73.9814077734375,36.899971438789365,73.9278877734375,36.92647143878937,73.8743677734375,36.953071438789365C73.7940877734375,37.006171438789366,73.7138077734375,37.05927143878937,73.6602877734375,37.11237143878937C73.63352777343749,37.138871438789366,73.6067677734375,37.16547143878937,73.5800077734375,37.16547143878937C73.5264877734375,37.191971438789366,73.4997277734375,37.24507143878937,73.4462077734375,37.27167143878937Q73.4462077734375,37.27167143878937,73.4194477734375,37.29817143878937L73.3926877734375,37.32477143878937C73.3659277734375,37.35127143878937,73.3391677734375,37.37787143878937,73.3124077734375,37.40437143878937C73.2856477734375,37.43097143878937,73.2588877734375,37.45747143878937,73.2321277734375,37.51057143878937Q73.2321277734375,37.51057143878937,73.2321277734375,37.537171438789365C73.2053677734375,37.56367143878937,73.1786077734375,37.61677143878937,73.1518477734375,37.643371438789366C73.1250877734375,37.669871438789365,73.0983277734375,37.722971438789365,73.0715677734375,37.74957143878937C73.0448077734375,37.776071438789366,73.0448077734375,37.80267143878937,73.0180477734375,37.829171438789366C72.9912877734375,37.85577143878937,72.9912877734375,37.90887143878937,72.9645277734375,37.93537143878937C72.9645277734375,37.96197143878937,72.9377677734375,37.98847143878937,72.9377677734375,38.01507143878937Q72.9377677734375,38.01507143878937,72.9377677734375,38.04157143878937L72.9377677734375,38.06817143878937C72.9110077734375,38.09467143878937,72.9110077734375,38.14777143878937,72.8842477734375,38.174371438789365C72.8574877734375,38.20087143878937,72.8574877734375,38.25397143878937,72.8307277734375,38.280571438789366L72.8307277734375,38.307071438789364L72.8307277734375,38.33367143878937Q72.8307277734375,38.360171438789365,72.8039677734375,38.38677143878937C72.7772077734375,38.439771438789364,72.7772077734375,38.466371438789366,72.7772077734375,38.51947143878937C72.7772077734375,38.545971438789365,72.7772077734375,38.57257143878937,72.7504477734375,38.599071438789366L72.7504477734375,38.62567143878937C72.7504477734375,38.65217143878937,72.7504477734375,38.65217143878937,72.7504477734375,38.67877143878937C72.7504477734375,38.73187143878937,72.7236877734375,38.81147143878937,72.7236877734375,38.86457143878937C72.7236877734375,38.89117143878937,72.7236877734375,38.89117143878937,72.7236877734375,38.91767143878937C72.7236877734375,38.97077143878937,72.7236877734375,39.050471438789366,72.7236877734375,39.103571438789366L72.7772377734375,51.19997143878937C72.7772377734375,52.023071438789366,73.0716477734375,52.58047143878937,73.5265677734375,52.84597143878937L81.0729177734375,57.200271438789365C80.6179177734375,56.93477143878937,80.3235177734375,56.35047143878937,80.3235177734375,55.55397143878937L80.2700177734375,45.84707143878937L86.0502177734375,49.16567143878937Q86.0769177734375,49.16567143878937,86.1037177734375,49.192171438789366L86.1305177734375,49.192171438789366L86.15721777343751,49.192171438789366L86.1840177734375,49.192171438789366L86.2107177734375,49.192171438789366C86.2375177734375,49.192171438789366,86.2643177734375,49.192171438789366,86.2910177734375,49.192171438789366Q86.2910177734375,49.192171438789366,86.3178177734375,49.192171438789366Q86.3445177734375,49.192171438789366,86.3713177734375,49.192171438789366L86.3981177734375,49.192171438789366L86.4248177734375,49.192171438789366L86.4516177734375,49.192171438789366L86.4783177734375,49.192171438789366C86.5051177734375,49.192171438789366,86.5051177734375,49.192171438789366,86.5319177734375,49.192171438789366L86.5586177734375,49.192171438789366L86.5854177734375,49.192171438789366C86.6121177734375,49.192171438789366,86.6389177734375,49.16567143878937,86.6657177734375,49.16567143878937L86.6924177734375,49.16567143878937Q86.6924177734375,49.16567143878937,86.71921777343749,49.16567143878937C86.7727177734375,49.139071438789365,86.82621777343749,49.11257143878937,86.8797177734375,49.085971438789365L102.6682177734375,40.03277143878937C102.7485177734375,39.97967143878937,102.8287177734375,39.92657143878937,102.9090177734375,39.873471438789366C102.93581777343749,39.84687143878937,102.9625177734375,39.820371438789365,102.9893177734375,39.820371438789365C103.0161177734375,39.79377143878937,103.0696177734375,39.767271438789365,103.0963177734375,39.714171438789364C103.1231177734375,39.687671438789366,103.1231177734375,39.687671438789366,103.1499177734375,39.66107143878937C103.1766177734375,39.634571438789365,103.1766177734375,39.634571438789365,103.20341777343751,39.60797143878937C103.2301177734375,39.581471438789364,103.2301177734375,39.581471438789364,103.2569177734375,39.55487143878937C103.2837177734375,39.50177143878937,103.3372177734375,39.47527143878937,103.36391777343749,39.42217143878937C103.36391777343749,39.39557143878937,103.3907177734375,39.39557143878937,103.3907177734375,39.36907143878937Q103.3907177734375,39.34247143878937,103.41751777343751,39.34247143878937C103.41751777343751,39.31597143878937,103.4442177734375,39.31597143878937,103.4442177734375,39.28937143878937C103.4710177734375,39.26287143878937,103.4977177734375,39.20977143878937,103.52451777343751,39.183171438789365C103.5513177734375,39.15667143878937,103.5780177734375,39.103571438789366,103.5780177734375,39.076971438789364C103.6048177734375,39.050471438789366,103.6048177734375,39.02387143878937,103.63151777343751,38.997371438789365C103.6583177734375,38.97077143878937,103.6583177734375,38.91767143878937,103.6851177734375,38.89117143878937C103.7118177734375,38.86457143878937,103.7118177734375,38.83807143878937,103.7386177734375,38.78497143878937C103.7653177734375,38.75837143878937,103.7653177734375,38.70527143878937,103.7921177734375,38.67877143878937C103.8189177734375,38.65217143878937,103.8189177734375,38.599071438789366,103.84561777343751,38.57257143878937C103.84561777343751,38.54607143878937,103.84561777343751,38.54607143878937,103.87241777343749,38.51947143878937L103.87241777343749,38.49297143878937C103.87241777343749,38.466371438789366,103.87241777343749,38.466371438789366,103.8991177734375,38.43987143878937C103.9259177734375,38.38677143878937,103.9259177734375,38.33367143878937,103.9259177734375,38.307071438789364C103.9259177734375,38.280571438789366,103.9259177734375,38.25397143878937,103.9527177734375,38.227471438789365C103.9527177734375,38.20087143878937,103.9527177734375,38.20087143878937,103.9527177734375,38.174371438789365C103.9527177734375,38.14777143878937,103.9527177734375,38.14777143878937,103.9527177734375,38.12127143878937C103.9527177734375,38.04157143878937,103.97941777343749,37.96197143878937,103.97941777343749,37.88227143878937C103.97941777343749,37.48407143878937,103.84561777343751,37.21857143878937,103.6048177734375,37.08587143878937L96.19231777343751,32.89107143878937Q96.19231777343751,32.89107143878937,96.2190177734375,32.864471438789366C96.2725177734375,32.811371438789365,96.3260177734375,32.78487143878937,96.3796177734375,32.731771438789366C96.4331177734375,32.678671438789365,96.5134177734375,32.625571438789365,96.5669177734375,32.572471438789364C96.6204177734375,32.51937143878936,96.6739177734375,32.49277143878937,96.7275177734375,32.43967143878937C96.7810177734375,32.38657143878937,96.8612177734375,32.33347143878937,96.9148177734375,32.280371438789366C96.9683177734375,32.22737143878937,97.0218177734375,32.17427143878937,97.0753177734375,32.14767143878937C97.1288177734375,32.094571438789366,97.2091177734375,32.04147143878937,97.2626177734375,31.98837143878937C97.3162177734375,31.935271438789368,97.3697177734375,31.882171438789367,97.4232177734375,31.829071438789367C97.4767177734375,31.775971438789366,97.55701777343751,31.72287143878937,97.6105177734375,31.643271438789366C97.6373177734375,31.616671438789368,97.6373177734375,31.616671438789368,97.66401777343751,31.59017143878937C97.6908177734375,31.563571438789367,97.7176177734375,31.53707143878937,97.7176177734375,31.510471438789367C97.8246177734375,31.40427143878937,97.9584177734375,31.27157143878937,98.0654177734375,31.165371438789368C98.0922177734375,31.138771438789366,98.11901777343749,31.112271438789367,98.1457177734375,31.059171438789367C98.2795177734375,30.926371438789367,98.4133177734375,30.76707143878937,98.54711777343749,30.607871438789367L98.5739177734375,30.58127143878937L98.6007177734375,30.554771438789366C98.81471777343751,30.31577143878937,99.0288177734375,30.050271438789366,99.2161177734375,29.81137143878937C99.2161177734375,29.784771438789367,99.2429177734375,29.784771438789367,99.2429177734375,29.758271438789368C99.2429177734375,29.731671438789366,99.26971777343749,29.731671438789366,99.26971777343749,29.705171438789367C99.4302177734375,29.49277143878937,99.6175177734375,29.253871438789368,99.7781177734375,29.04147143878937C99.7781177734375,29.014871438789367,99.8049177734375,29.014871438789367,99.8049177734375,28.98837143878937C99.8584177734375,28.90867143878937,99.9119177734375,28.829071438789367,99.96541777343751,28.749371438789368C100.0189177734375,28.66977143878937,100.0725177734375,28.59007143878937,100.1260177734375,28.53697143878937L100.1527177734375,28.510471438789367C100.2063177734375,28.430771438789368,100.2598177734375,28.377671438789367,100.3401177734375,28.324571438789366C100.3936177734375,28.27147143878937,100.4471177734375,28.244971438789367,100.4739177734375,28.191871438789367C100.5006177734375,28.165271438789368,100.52741777343749,28.138771438789366,100.5541177734375,28.138771438789366C100.6344177734375,28.08567143878937,100.6879177734375,28.03257143878937,100.7682177734375,28.005971438789366C100.8217177734375,27.979471438789368,100.9020177734375,27.926371438789367,100.95551777343749,27.89977143878937C100.9823177734375,27.89977143878937,100.9823177734375,27.89977143878937,101.0091177734375,27.873271438789367C101.0626177734375,27.846771438789368,101.11611777343751,27.846771438789368,101.1696177734375,27.820171438789366L101.1964177734375,27.820171438789366C101.2499177734375,27.820171438789366,101.3302177734375,27.793671438789367,101.3837177734375,27.793671438789367C101.4372177734375,27.793671438789367,101.5175177734375,27.793671438789367,101.57101777343749,27.820171438789366C101.5978177734375,27.820171438789366,101.6245177734375,27.846771438789368,101.6513177734375,27.846771438789368C101.67811777343749,27.846771438789368,101.67811777343749,27.846771438789368,101.7048177734375,27.846771438789368C101.8386177734375,27.873271438789367,101.9724177734375,27.926371438789367,102.10621777343749,27.926371438789367L102.1330177734375,27.926371438789367C102.2935177734375,27.95287143878937,102.4273177734375,27.979471438789368,102.58791777343751,27.979471438789368C102.61471777343749,27.979471438789368,102.61471777343749,27.979471438789368,102.6414177734375,27.979471438789368L102.6682177734375,27.979471438789368C102.8287177734375,27.979471438789368,102.9893177734375,27.979471438789368,103.1499177734375,27.979471438789368L103.1766177734375,27.979471438789368C103.20341777343751,27.979471438789368,103.2301177734375,27.979471438789368,103.2569177734375,27.979471438789368C103.3104177734375,27.979471438789368,103.36391777343749,27.979471438789368,103.41751777343751,27.979471438789368C103.4710177734375,27.979471438789368,103.52451777343751,27.979471438789368,103.5780177734375,27.95287143878937C103.63151777343751,27.95287143878937,103.6851177734375,27.95287143878937,103.7386177734375,27.926371438789367C103.7653177734375,27.926371438789367,103.7921177734375,27.926371438789367,103.8189177734375,27.926371438789367C103.84561777343751,27.926371438789367,103.87241777343749,27.926371438789367,103.8991177734375,27.89987143878937C103.97941777343749,27.89987143878937,104.0329177734375,27.873271438789367,104.1132177734375,27.873271438789367C104.1667177734375,27.873271438789367,104.2203177734375,27.846771438789368,104.2738177734375,27.846771438789368C104.35411777343751,27.820171438789366,104.4076177734375,27.820171438789366,104.4879177734375,27.793671438789367C104.5146177734375,27.793671438789367,104.5414177734375,27.76707143878937,104.5949177734375,27.76707143878937C104.6217177734375,27.76707143878937,104.6217177734375,27.76707143878937,104.6484177734375,27.76707143878937C104.78221777343751,27.71397143878937,104.9428177734375,27.687471438789366,105.0766177734375,27.63437143878937C105.10331777343751,27.63437143878937,105.13011777343749,27.607771438789367,105.1569177734375,27.607771438789367C105.2907177734375,27.554671438789367,105.4245177734375,27.528171438789368,105.5315177734375,27.475071438789367Q105.5583177734375,27.475071438789367,105.5850177734375,27.44847143878937C105.61181777343751,27.44847143878937,105.61181777343751,27.421971438789367,105.6385177734375,27.421971438789367C105.7991177734375,27.342271438789368,105.9864177734375,27.26267143878937,106.1470177734375,27.182971438789366C106.1737177734375,27.156471438789367,106.2005177734375,27.156471438789367,106.2273177734375,27.12987143878937C106.4146177734375,27.050271438789366,106.60191777343749,26.94407143878937,106.7892177734375,26.837871438789367C107.1639177734375,26.62547143878937,107.5118177734375,26.413071438789366,107.85961777343749,26.147571438789367C107.9131177734375,26.121071438789368,107.9667177734375,26.067971438789368,108.02021777343751,26.04137143878937C108.0737177734375,26.014871438789367,108.12721777343751,25.98827143878937,108.1808177734375,25.961771438789366C108.2610177734375,26.04137143878937,108.2610177734375,26.04137143878937,108.2878177734375,26.04137143878937ZM96.40631777343751,33.60787143878937C96.40631777343751,33.71407143878937,96.40631777343751,33.79367143878937,96.3796177734375,33.89987143878937C96.3796177734375,33.92647143878937,96.3796177734375,33.92647143878937,96.3796177734375,33.95297143878937C96.3528177734375,34.032671438789365,96.3528177734375,34.138871438789366,96.3260177734375,34.218471438789365L96.3260177734375,34.24507143878937C96.29931777343751,34.35127143878937,96.2458177734375,34.43087143878937,96.2190177734375,34.53707143878937C96.1655177734375,34.64327143878937,96.1120177734375,34.722971438789365,96.0584177734375,34.829171438789366C96.0049177734375,34.908771438789366,95.9514177734375,35.01497143878937,95.8711177734375,35.09467143878937Q95.8711177734375,35.12117143878937,95.8444177734375,35.12117143878937C95.7908177734375,35.20077143878937,95.7106177734375,35.28047143878937,95.6571177734375,35.33357143878937C95.6303177734375,35.36007143878937,95.6303177734375,35.36007143878937,95.6035177734375,35.38667143878937C95.5500177734375,35.439771438789364,95.4965177734375,35.492871438789365,95.4430177734375,35.545971438789365C95.4162177734375,35.572471438789364,95.3895177734375,35.599071438789366,95.3627177734375,35.599071438789366C95.2824177734375,35.65217143878937,95.2021177734375,35.70527143878937,95.1218177734375,35.75837143878937L80.18971777343751,44.30717143878937L80.18971777343751,43.510671438789366C80.18971777343751,43.457571438789365,80.18971777343751,43.377971438789366,80.18971777343751,43.324871438789366C80.18971777343751,43.24517143878937,80.2165177734375,43.13897143878937,80.2433177734375,43.05937143878937L80.2433177734375,43.03277143878937C80.2700177734375,42.95317143878937,80.2968177734375,42.84697143878937,80.3235177734375,42.767271438789365L80.3235177734375,42.740771438789366C80.3503177734375,42.66117143878937,80.4038177734375,42.554971438789366,80.4306177734375,42.47527143878937Q80.4306177734375,42.47527143878937,80.4306177734375,42.448771438789365C80.4841177734375,42.36907143878937,80.5109177734375,42.28947143878937,80.5644177734375,42.18327143878937C80.6179177734375,42.103571438789366,80.6714177734375,42.02397143878937,80.7249177734375,41.944271438789364Q80.7249177734375,41.944271438789364,80.7249177734375,41.917771438789366C80.7785177734375,41.83807143878937,80.8320177734375,41.78497143878937,80.8855177734375,41.73187143878937L80.91231777343751,41.70537143878937C80.9658177734375,41.65227143878937,81.0193177734375,41.62567143878937,81.0461177734375,41.57257143878937C81.07281777343749,41.54607143878937,81.0996177734375,41.51947143878937,81.1263177734375,41.51947143878937C81.2066177734375,41.466371438789366,81.2601177734375,41.413271438789366,81.3404177734375,41.360171438789365C81.3939177734375,41.33367143878937,81.4475177734375,41.307071438789364,81.5010177734375,41.280571438789366C81.8489177734375,41.12127143878937,82.1967177734375,40.96197143878937,82.5446177734375,40.74957143878937C82.6784177734375,40.66997143878937,82.7855177734375,40.61687143878937,82.9193177734375,40.537171438789365C82.9460177734375,40.510671438789366,82.9995177734375,40.48407143878937,83.0263177734375,40.457571438789365C83.1066177734375,40.404471438789365,83.1869177734375,40.351371438789364,83.2671177734375,40.29827143878937C83.32071777343751,40.27167143878937,83.3474177734375,40.24517143878937,83.4009177734375,40.19207143878937C83.48121777343749,40.13897143878937,83.5347177734375,40.08587143878937,83.6150177734375,40.03277143878937C83.6685177734375,40.006171438789366,83.7221177734375,39.953071438789365,83.7756177734375,39.92657143878937C83.8559177734375,39.873471438789366,83.9094177734375,39.820371438789365,83.9897177734375,39.767271438789365C84.0432177734375,39.714171438789364,84.0967177734375,39.68757143878937,84.1502177734375,39.63447143878937C84.2037177734375,39.58137143878937,84.2840177734375,39.52827143878937,84.3375177734375,39.47517143878937C84.3911177734375,39.42207143878937,84.4446177734375,39.39557143878937,84.4981177734375,39.34247143878937C84.5516177734375,39.28937143878937,84.6319177734375,39.236271438789366,84.6854177734375,39.183171438789365C84.73891777343749,39.130071438789365,84.7925177734375,39.076971438789364,84.8460177734375,39.050471438789366C84.8995177734375,38.997371438789365,84.9798177734375,38.944271438789364,85.0333177734375,38.89117143878937C85.0868177734375,38.83807143878937,85.1403177734375,38.78497143878937,85.1939177734375,38.73187143878937C85.2474177734375,38.67877143878937,85.3277177734375,38.62567143878937,85.3812177734375,38.545971438789365C85.4079177734375,38.51947143878937,85.4079177734375,38.51947143878937,85.4347177734375,38.492871438789365Q85.46151777343749,38.466371438789366,85.4882177734375,38.439771438789364C85.5953177734375,38.33357143878937,85.72911777343751,38.20087143878937,85.83611777343751,38.09467143878937C85.8629177734375,38.06807143878937,85.8896177734375,38.04157143878937,85.9164177734375,38.01497143878937C86.0502177734375,37.855671438789365,86.1840177734375,37.722971438789365,86.3178177734375,37.56367143878937L86.3445177734375,37.537171438789365Q86.3713177734375,37.51057143878937,86.3713177734375,37.48407143878937C86.5854177734375,37.24507143878937,86.7995177734375,36.97957143878937,86.98681777343751,36.74067143878937C86.98681777343751,36.71407143878937,87.0135177734375,36.71407143878937,87.0135177734375,36.68757143878937C87.0135177734375,36.66097143878937,87.0403177734375,36.66097143878937,87.0403177734375,36.63447143878937C87.2009177734375,36.42207143878937,87.3614177734375,36.183171438789365,87.5487177734375,35.97077143878937C87.5487177734375,35.94417143878937,87.5755177734375,35.94417143878937,87.5755177734375,35.91767143878937C87.6290177734375,35.83797143878937,87.6825177734375,35.75837143878937,87.7361177734375,35.678671438789365C87.7896177734375,35.599071438789366,87.8431177734375,35.51937143878937,87.8966177734375,35.46627143878937L87.9234177734375,35.439771438789364C87.97691777343749,35.36007143878937,88.0304177734375,35.30697143878937,88.1107177734375,35.25387143878937C88.1642177734375,35.20077143878937,88.2177177734375,35.17427143878937,88.24451777343751,35.12117143878937C88.2713177734375,35.094571438789366,88.2980177734375,35.06807143878937,88.3248177734375,35.06807143878937C88.4051177734375,35.01497143878937,88.4586177734375,34.961871438789366,88.5389177734375,34.935271438789364C88.5924177734375,34.908771438789366,88.6727177734375,34.855671438789365,88.7262177734375,34.82907143878937C88.7529177734375,34.82907143878937,88.7529177734375,34.82907143878937,88.7797177734375,34.802571438789364C88.8332177734375,34.77597143878937,88.8867177734375,34.77597143878937,88.9403177734375,34.74947143878937L88.9670177734375,34.74947143878937C89.0205177734375,34.74947143878937,89.1008177734375,34.722971438789365,89.1543177734375,34.722971438789365C89.2079177734375,34.722971438789365,89.2881177734375,34.722971438789365,89.3417177734375,34.74947143878937C89.3684177734375,34.74947143878937,89.4219177734375,34.77597143878937,89.4487177734375,34.77597143878937C89.4755177734375,34.77597143878937,89.4755177734375,34.77597143878937,89.50221777343751,34.77597143878937C89.6093177734375,34.802571438789364,89.7431177734375,34.82907143878937,89.8769177734375,34.855671438789365L89.9036177734375,34.855671438789365C90.06421777343749,34.88217143878937,90.1980177734375,34.908771438789366,90.3585177734375,34.908771438789366C90.38531777343749,34.908771438789366,90.38531777343749,34.908771438789366,90.4121177734375,34.908771438789366Q90.4388177734375,34.908771438789366,90.4656177734375,34.908771438789366C90.5191177734375,34.908771438789366,90.5459177734375,34.908771438789366,90.5994177734375,34.908771438789366C90.65291777343751,34.908771438789366,90.7064177734375,34.908771438789366,90.75991777343751,34.908771438789366C90.8135177734375,34.908771438789366,90.8402177734375,34.908771438789366,90.8937177734375,34.908771438789366C90.9205177734375,34.908771438789366,90.9473177734375,34.908771438789366,90.9740177734375,34.908771438789366C91.0008177734375,34.908771438789366,91.0275177734375,34.908771438789366,91.0811177734375,34.908771438789366C91.1346177734375,34.908771438789366,91.1881177734375,34.908771438789366,91.2416177734375,34.908771438789366C91.2951177734375,34.908771438789366,91.3487177734375,34.908771438789366,91.4022177734375,34.88217143878937C91.4557177734375,34.88217143878937,91.5092177734375,34.88217143878937,91.5627177734375,34.855671438789365Q91.5895177734375,34.855671438789365,91.6163177734375,34.855671438789365C91.64301777343749,34.855671438789365,91.6698177734375,34.855671438789365,91.6965177734375,34.82907143878937C91.7768177734375,34.82907143878937,91.8304177734375,34.802571438789364,91.91061777343751,34.802571438789364C91.9641177734375,34.802571438789364,92.0177177734375,34.776071438789366,92.0712177734375,34.776071438789366C92.1515177734375,34.74947143878937,92.2050177734375,34.74947143878937,92.2853177734375,34.722971438789365C92.3120177734375,34.722971438789365,92.3388177734375,34.69637143878937,92.3923177734375,34.69637143878937C92.4191177734375,34.69637143878937,92.4191177734375,34.69637143878937,92.4458177734375,34.69637143878937C92.5796177734375,34.64327143878937,92.74021777343751,34.61677143878937,92.8740177734375,34.56367143878937C92.9008177734375,34.56367143878937,92.9275177734375,34.53707143878937,92.9543177734375,34.53707143878937C93.0881177734375,34.48397143878937,93.2219177734375,34.45747143878937,93.3289177734375,34.40437143878937Q93.3557177734375,34.40437143878937,93.3824177734375,34.37777143878937C93.4092177734375,34.37777143878937,93.4092177734375,34.35127143878937,93.4360177734375,34.35127143878937C93.5965177734375,34.271571438789366,93.7838177734375,34.191971438789366,93.9444177734375,34.11227143878937C93.9712177734375,34.085771438789365,93.9979177734375,34.085771438789365,94.0247177734375,34.05917143878937C94.2120177734375,33.97957143878937,94.3993177734375,33.87337143878937,94.5866177734375,33.76717143878937C94.7204177734375,33.687471438789366,94.8275177734375,33.63437143878937,94.9613177734375,33.554771438789366C94.9880177734375,33.52817143878937,95.04161777343751,33.50167143878937,95.0683177734375,33.47507143878937C95.14861777343751,33.42197143878937,95.2289177734375,33.36887143878937,95.3092177734375,33.31587143878937C95.3627177734375,33.28927143878937,95.4162177734375,33.26277143878937,95.4430177734375,33.20967143878937C95.5232177734375,33.15657143878937,95.5768177734375,33.10347143878937,95.6570177734375,33.05037143878937C95.7106177734375,33.02377143878937,95.7641177734375,32.97067143878937,95.8176177734375,32.94417143878937C95.8711177734375,32.89107143878937,95.9246177734375,32.864471438789366,95.9782177734375,32.811371438789365C96.3260177734375,33.05037143878937,96.40631777343751,33.28927143878937,96.40631777343751,33.60787143878937Z" fill="url(#master_svg11_3417_582527)" fill-opacity="1"/></g><g><g><g><path d="M107.35118073806763,23.73155069141388C111.23138073806763,21.12975069141388,113.53278073806763,14.99694069141388,111.95398073806763,11.81104069141388L109.14418073806763,7.138397691413879C108.47518073806762,6.049883691413879,107.13718073806763,5.864039691413879,105.66538073806763,6.713611691413879L83.74884073806763,19.27135069141388C82.30379073806763,20.12095069141388,80.96579073806762,21.82005069141388,80.29679073806763,23.67855069141388L77.51374173806762,31.56355069141388C75.96166073806762,36.52825069141388,78.28978073806763,40.00625069141388,82.16999073806763,38.147750691413876C82.35731073806762,38.06815069141388,82.51787073806763,37.98845069141388,82.67844073806762,37.88225069141388C84.65868073806763,36.740650691413876,86.53188073806763,34.56365069141388,87.65578073806762,32.01495069141388C87.89668073806763,31.48395069141388,88.29808073806763,31.03265069141388,88.69948073806762,30.79365069141388C88.94028073806763,30.66095069141388,89.18118073806762,30.581250691413878,89.39518073806762,30.63435069141388C89.52898073806763,30.66095069141388,89.66278073806762,30.71405069141388,89.74308073806763,30.82025069141388C90.84028073806763,32.01495069141388,92.65998073806763,32.174250691413874,94.74718073806763,30.97955069141388C96.83448073806763,29.78475069141388,98.68098073806763,27.52815069141388,99.75138073806762,25.08565069141388C99.99218073806763,24.55465069141388,100.39358073806763,24.10325069141388,100.79498073806762,23.86435069141388C101.03588073806762,23.73155069141388,101.27668073806763,23.65195069141388,101.49078073806763,23.70505069141388C101.62458073806764,23.73155069141388,101.75838073806763,23.78465069141388,101.83868073806762,23.890850691413878C102.96258073806763,25.13875069141388,104.86258073806763,25.19175069141388,106.84278073806763,24.05015069141388C107.00338073806762,23.943950691413878,107.19068073806763,23.83775069141388,107.35118073806763,23.73155069141388ZM109.25708073806763,26.51445069141388C109.25708073806763,25.71795069141388,108.66838073806763,25.39945069141388,107.99938073806763,25.797750691413878C107.94578073806763,25.82425069141388,107.89228073806763,25.87745069141388,107.83878073806763,25.93055069141388C107.49088073806763,26.19605069141388,107.14298073806762,26.40835069141388,106.76828073806763,26.62075069141388C104.86838073806763,27.709250691413878,103.02188073806762,28.027850691413878,101.52338073806763,27.57655069141388C101.28248073806762,27.49685069141388,101.01488073806763,27.55005069141388,100.72058073806762,27.709350691413878C100.42618073806763,27.86865069141388,100.15858073806763,28.13405069141388,99.91778073806762,28.479150691413878C98.41918073806762,30.65625069141388,96.57278073806762,32.43515069141388,94.67278073806763,33.52365069141388C92.77278073806762,34.61215069141388,90.92638073806762,34.930550691413885,89.42778073806763,34.47915069141388C89.18698073806763,34.39955069141388,88.91938073806763,34.45275069141388,88.62498073806762,34.612050691413884C88.33068073806763,34.77135069141388,88.06308073806763,35.03675069141388,87.82218073806763,35.38185069141388C86.32365073806763,37.58545069141388,84.47720073806762,39.33775069141388,82.57724073806763,40.42625069141388C82.22936073806763,40.63865069141388,81.88148073806762,40.79805069141388,81.53360073806763,40.95735069141388L81.37300073806763,41.03705069141388C80.75752073806763,41.38215069141388,80.22236073806762,42.23155069141388,80.14208073806763,43.00155069141388L80.14208073806763,43.18745069141388L80.16887073806762,55.45305069141388C80.19563073806762,57.07255069141388,81.29275073806762,57.73635069141388,82.68427073806762,56.93995069141388L106.79508073806763,43.13435069141388C108.18658073806762,42.33785069141388,109.28378073806763,40.39985069141388,109.28378073806763,38.78035069141388L109.25708073806763,26.51445069141388ZM103.87828073806763,37.63855069141388C103.87828073806763,38.43505069141388,103.31628073806763,39.41735069141388,102.62058073806763,39.81555069141388L86.83215073806763,48.86895069141388C86.13639073806763,49.26715069141388,85.57434073806763,48.94865069141388,85.57434073806763,48.15215069141388C85.57434073806763,47.35575069141388,86.13639073806763,46.37345069141388,86.83215073806763,45.97515069141388L102.62058073806763,36.92185069141388C103.31628073806763,36.52355069141388,103.87828073806763,36.84215069141388,103.87828073806763,37.63855069141388Z" fill-rule="evenodd" fill="url(#master_svg12_3417_581530)" fill-opacity="1"/></g></g></g></g></g></g></svg>