<svg xmlns="http://www.w3.org/2000/svg" xmlns:xlink="http://www.w3.org/1999/xlink" fill="none" version="1.1" width="24.421142578125" height="24.4210205078125" viewBox="0 0 24.421142578125 24.4210205078125"><defs><clipPath id="master_svg0_2994_15818/1456_2707"><rect x="0" y="0" width="24.421052932739258" height="24.421052932739258" rx="0"/></clipPath></defs><g style="mix-blend-mode:passthrough"><g style="mix-blend-mode:passthrough" clip-path="url(#master_svg0_2994_15818/1456_2707)"><g style="mix-blend-mode:passthrough"><g style="mix-blend-mode:passthrough"><path d="M15.00030859375,19.13064921875C15.00030859375,19.387749218750002,14.79770859375,19.59934921875,14.54080859375,19.61044921875L8.14175859375,19.61044921875C7.88487859375,19.59934921875,7.68234859375,19.387749218750002,7.68234859375,19.13064921875C7.68234859375,18.87354921875,7.88487859375,18.66204921875,8.14175859375,18.65084921875L14.54080859375,18.65084921875C14.79770859375,18.66204921875,15.00030859375,18.87354921875,15.00030859375,19.13064921875ZM19.059908593750002,5.49118621875C19.24010859375,5.67116821875,19.34130859375,5.91537721875,19.34130859375,6.17003021875L19.34130859375,16.730849218750002C19.34130859375,17.26074921875,18.91070859375,17.69034921875,18.38080859375,17.69034921875L4.30085759375,17.69034921875C3.77091359375,17.69034921875,3.34130859375,17.26074921875,3.34130859375,16.730849218750002L3.34130859375,6.17003021875C3.34130859375,5.64014021875,3.77098459375,5.210449637989,4.30085759375,5.210449637989L18.38180859375,5.210449637989C18.63550859375,5.21021176975,18.87980859375,5.31120421875,19.059908593750002,5.49118621875ZM13.39630859375,11.551069218750001C13.20515859375,11.40286921875,12.93367859375,11.419879218750001,12.76257859375,11.59078921875L12.72285859375,11.63592921875C12.57465859375,11.827029218749999,12.59166859375,12.09852921875,12.76257859375,12.26962921875L13.38270859375,12.890689218750001L7.66153859375,12.890689218750001C7.40464859375,12.90183921875,7.20212859375,13.113349218749999,7.20212859375,13.37047921875C7.20212859375,13.62761921875,7.40464859375,13.83912921875,7.66153859375,13.85026921875L13.38180859375,13.85026921875L12.76167859375,14.47132921875L12.72195859375,14.51646921875C12.56905859375,14.71682921875,12.59705859375,15.00128921875,12.78607859375,15.16799921875C12.97509859375,15.33474921875,13.26082859375,15.32694921875,13.44050859375,15.15016921875L14.88030859375,13.70944921875L14.92000859375,13.66430921875C15.06760859375,13.47336921875,15.05060859375,13.20248921875,14.88030859375,13.03150921875L13.44140859375,11.59078921875L13.39630859375,11.551069218750001ZM8.76189859375,7.75066921875L7.32212859375,9.19138921875C7.15121859375,9.36249921875,7.1342085937499995,9.63398921875,7.2824085937500005,9.825099218750001L7.32212859375,9.87022921875L8.76189859375,11.310049218749999C8.941568593749999,11.48679921875,9.22728859375,11.494579218750001,9.416318593749999,11.327879218749999C9.60533859375,11.16116921875,9.63332859375,10.876709218750001,9.48043859375,10.676349218750001L9.440718593749999,10.63120921875L8.82057859375,10.01014921875L14.54080859375,10.01014921875C14.71720859375,10.01779921875,14.88360859375,9.92806921875,14.97400859375,9.77646921875C15.06450859375,9.62486921875,15.06450859375,9.43584921875,14.97400859375,9.28425921875C14.88360859375,9.13265921875,14.71720859375,9.04291921875,14.54080859375,9.05056921875L8.82057859375,9.05056921875L9.440718593749999,8.429509218749999C9.61222859375,8.25798921875,9.62846859375,7.987179218750001,9.48043859375,7.79580921875L9.440718593749999,7.75066921875C9.26961859375,7.5797592187500005,8.99812859375,7.56274921875,8.80703859375,7.710949218750001L8.76189859375,7.75066921875Z" fill-rule="evenodd" fill="#19DBFF" fill-opacity="1"/></g></g></g></g></svg>