<svg xmlns="http://www.w3.org/2000/svg" xmlns:xlink="http://www.w3.org/1999/xlink" fill="none" version="1.1" width="58" height="58" viewBox="0 0 58 58"><defs><linearGradient x1="0.5" y1="0" x2="0.5" y2="1" id="master_svg0_2994_15807"><stop offset="0%" stop-color="#156DB0" stop-opacity="1"/><stop offset="60.00000238418579%" stop-color="#156DB0" stop-opacity="0.5205479264259338"/><stop offset="100%" stop-color="#156DB0" stop-opacity="0"/></linearGradient><linearGradient x1="0.5" y1="0" x2="0.5" y2="1" id="master_svg1_2994_15075"><stop offset="0%" stop-color="#186FC5" stop-opacity="1"/><stop offset="99.28571581840515%" stop-color="#073C71" stop-opacity="0"/></linearGradient><linearGradient x1="0.5" y1="0" x2="0.5" y2="0.820958137512207" id="master_svg2_2994_42906"><stop offset="0%" stop-color="#D6EDFF" stop-opacity="1"/><stop offset="30.000001192092896%" stop-color="#0090FF" stop-opacity="0.5413936972618103"/><stop offset="98.57142567634583%" stop-color="#1468AA" stop-opacity="0"/></linearGradient></defs><g style="mix-blend-mode:passthrough"><g style="mix-blend-mode:passthrough"><path d="M54.1147,14.5L29,0L3.88526,14.5L3.88526,43.5L29,58L54.1147,43.5L54.1147,14.5ZM53.1147,15.0773L29,1.1547L4.88526,15.0774L4.88526,42.9226L29,56.8453L53.1147,42.9226L53.1147,15.0773Z" fill-rule="evenodd" fill="url(#master_svg0_2994_15807)" fill-opacity="1"/></g><g style="mix-blend-mode:passthrough"><path d="M29.00016875,6.1052246093750036L48.82766875,17.552624609375002L48.82766875,40.447324609375L29.00016875,51.894724609375L9.172778749999999,40.447324609375L9.172778749999999,17.552624609375002L29.00016875,6.1052246093750036Z" fill="url(#master_svg1_2994_15075)" fill-opacity="1"/><path d="M48.82766875,17.552624609375002L29.00016875,6.105224609375L9.172778749999999,17.552624609375002L9.172778749999999,40.447324609375L29.00016875,51.894724609375L48.82766875,40.447324609375L48.82766875,17.552624609375002ZM47.82766875,18.129924609375L29.00016875,7.259924609375L10.172778749999999,18.129924609375L10.172778749999999,39.870024609375L29.00016875,50.740024609375L47.82766875,39.870024609375L47.82766875,18.129924609375Z" fill-rule="evenodd" fill="url(#master_svg2_2994_42906)" fill-opacity="1"/></g></g></svg>