<svg xmlns="http://www.w3.org/2000/svg" xmlns:xlink="http://www.w3.org/1999/xlink" fill="none" version="1.1" width="23.333332061767578" height="23.333332061767578" viewBox="0 0 23.333332061767578 23.333332061767578"><defs><clipPath id="master_svg0_3526_59907"><rect x="0" y="0" width="23.333332061767578" height="23.333332061767578" rx="0"/></clipPath><filter id="master_svg1_3526_59909" filterUnits="objectBoundingBox" color-interpolation-filters="sRGB" x="-4.753064155578613" y="-4.753064155578613" width="25.839462280273438" height="27.93347930908203"><feFlood flood-opacity="0" result="BackgroundImageFix"/><feColorMatrix in="SourceAlpha" type="matrix" values="0 0 0 0 0 0 0 0 0 0 0 0 0 0 0 0 0 0 127 0"/><feOffset dy="0" dx="0"/><feGaussianBlur stdDeviation="1.1882660388946533"/><feColorMatrix type="matrix" values="0 0 0 0 0.09803921729326248 0 0 0 0 0.8588235378265381 0 0 0 0 1 0 0 0 1 0"/><feBlend mode="normal" in2="BackgroundImageFix" result="effect1_dropShadow"/><feBlend mode="normal" in="SourceGraphic" in2="effect1_dropShadow" result="shape"/></filter></defs><g style="mix-blend-mode:passthrough" clip-path="url(#master_svg0_3526_59907)"><g style="mix-blend-mode:passthrough" filter="url(#master_svg1_3526_59909)"><g><path d="M17.9955220703125,9.463647753906251C16.336322070312498,10.14370775390625,14.1603220703125,10.54637775390625,11.6667920703125,10.54637775390625C9.1732820703125,10.54637775390625,6.9984820703125,10.14370775390625,5.3412820703125,9.463647753906251C4.8314020703125,9.25788775390625,4.3430100703125,9.00364775390625,3.8830030703125002,8.704507753906249C3.7543970703125,8.619867753906249,3.6164810703125,8.535217753906249,3.5001220703125,8.44742775390625L3.5001220703125,11.59863775390625C3.5001220703125,13.46079775390625,7.157702070312499,14.97379775390625,11.6667920703125,14.97379775390625C16.1758220703125,14.97379775390625,19.8334220703125,13.46179775390625,19.8334220703125,11.59863775390625L19.8334220703125,8.44742775390625C19.7171220703125,8.53836775390625,19.5792220703125,8.619867753906249,19.450622070312498,8.704507753906249C18.9917220703125,9.00361775390625,18.5043220703125,9.25786775390625,17.9955220703125,9.463647753906251ZM3.5001220703125,14.35369775390625L3.5001220703125,17.501997753906252C3.5001220703125,19.36809775390625,7.157702070312499,20.88009775390625,11.6667920703125,20.88009775390625C16.1758220703125,20.88009775390625,19.8334220703125,19.36809775390625,19.8334220703125,17.501997753906252L19.8334220703125,14.35369775390625C18.1677220703125,15.64509775390625,15.2293220703125,16.45259775390625,11.6638520703125,16.45259775390625C8.0983720703125,16.45259775390625,5.1658920703125,15.64509775390625,3.5001220703125,14.35369775390625ZM11.6667920703125,9.20052775390625C16.1758220703125,9.20052775390625,19.8334220703125,7.68852775390625,19.8334220703125,5.825617753906251C19.8318220703125,5.58923775390625,19.7752220703125,5.35638775390625,19.6678220703125,5.14507775390625C19.6100220703125,5.031697753906251,19.5424220703125,4.92343775390625,19.465722070312502,4.821487753906251C19.2885220703125,4.592837753906251,19.0802220703125,4.3893877539062505,18.846722070312502,4.21688775390625C18.5714220703125,4.0107077539062495,18.2772220703125,3.83047775390625,17.9678220703125,3.6785477539062503C17.6105220703125,3.50082775390625,17.2409220703125,3.34824675390625,16.8618220703125,3.22194675390625C16.4908220703125,3.09546275390625,16.113622070312502,2.98738575390625,15.7317220703125,2.89812075390625C14.3991220703125,2.59290575390625,13.0347620703125,2.44354925390625,11.6667920703125,2.45313110490625C10.298892070312501,2.44511770390625,8.9347120703125,2.59445375390625,7.6018320703125,2.89812075390625C7.2221320703125,2.98881175390625,6.8424320703124994,3.09764075390625,6.4715520703125,3.22170575390625C6.0928320703125,3.34879475390625,5.7233820703125,3.5013477539062503,5.3657820703125,3.67830775390625C5.0562820703125,3.83028775390625,4.7618520703125,4.0105177539062495,4.4863540703125,4.2166477539062495C4.2529080703125,4.38921775390625,4.0446850703125,4.5927477539062505,3.8675710703125,4.821487753906251C3.7908590703125,4.92342775390625,3.7231630703125,5.03168775390625,3.6652290703125,5.14507775390625C3.5575233703125,5.35622775390625,3.5010007553125,5.5892077539062495,3.5001220703125,5.825617753906251C3.5001220703125,7.69142775390625,7.1545220703125,9.20052775390625,11.6667920703125,9.20052775390625Z" fill="#19DBFF" fill-opacity="1"/></g></g></g></svg>