<svg xmlns="http://www.w3.org/2000/svg" xmlns:xlink="http://www.w3.org/1999/xlink" fill="none" version="1.1" width="28" height="28" viewBox="0 0 28 28"><defs><clipPath id="master_svg0_3526_59934"><rect x="0" y="0" width="28" height="28" rx="0"/></clipPath><filter id="master_svg1_3526_59934/1445_3306" filterUnits="objectBoundingBox" color-interpolation-filters="sRGB" x="-11.666666030883789" y="-11.666666030883789" width="41.205671310424805" height="41.99999809265137"><feFlood flood-opacity="0" result="BackgroundImageFix"/><feColorMatrix in="SourceAlpha" type="matrix" values="0 0 0 0 0 0 0 0 0 0 0 0 0 0 0 0 0 0 127 0"/><feOffset dy="0" dx="0"/><feGaussianBlur stdDeviation="2.9166665077209473"/><feColorMatrix type="matrix" values="0 0 0 0 0.1725490242242813 0 0 0 0 0.6274510025978088 0 0 0 0 1 0 0 0 1 0"/><feBlend mode="normal" in2="BackgroundImageFix" result="effect1_dropShadow"/><feBlend mode="normal" in="SourceGraphic" in2="effect1_dropShadow" result="shape"/></filter></defs><g style="mix-blend-mode:passthrough" clip-path="url(#master_svg0_3526_59934)"><g style="mix-blend-mode:passthrough"><g filter="url(#master_svg1_3526_59934/1445_3306)"><path d="M12.955402949218751,20.604959765625C13.56884294921875,20.828259765625,14.23131294921875,20.949959765625,14.92219294921875,20.949959765625C15.47984294921875,20.949959765625,16.01902294921875,20.870659765625,16.52892294921875,20.722859765625C16.79322294921875,21.530559765625,17.28722294921875,22.234659765625,17.933422949218752,22.758059765625C17.00212294921875,23.128859765625,15.98600294921875,23.332959765625,14.92219294921875,23.332959765625C13.75662294921875,23.332959765625,12.648252949218751,23.087959765625,11.64575294921875,22.646859765625C12.25749294921875,22.110259765625,12.71809294921875,21.405559765625,12.955402949218751,20.604959765625ZM9.163322949218749,16.183959765624998C10.91810294921875,16.183959765624998,12.340632949218751,17.606559765625,12.340632949218751,19.361259765625C12.340632949218751,21.116059765625,10.91810294921875,22.538559765625,9.163322949218749,22.538559765625C7.40855294921875,22.538559765625,5.98602294921875,21.116059765625,5.98602294921875,19.361259765625C5.98602294921875,17.606559765625,7.40855294921875,16.183959765624998,9.163322949218749,16.183959765624998ZM20.68102294921875,16.183959765624998C22.43582294921875,16.183959765624998,23.85832294921875,17.606559765625,23.85832294921875,19.361259765625C23.85832294921875,21.116059765625,22.43582294921875,22.538559765625,20.68102294921875,22.538559765625C18.92632294921875,22.538559765625,17.503722949218748,21.116059765625,17.503722949218748,19.361259765625C17.503722949218748,17.606559765625,18.92632294921875,16.183959765624998,20.68102294921875,16.183959765624998ZM19.07892294921875,8.188979765625C21.46502294921875,9.608259765625,23.06402294921875,12.212939765625,23.06402294921875,15.191059765625C23.06402294921875,15.358359765625,23.05902294921875,15.524459765625,23.04902294921875,15.689259765625C22.36662294921875,15.248359765625,21.553722949218752,14.992459765625,20.68102294921875,14.992459765625C20.61422294921875,13.119219765625,19.65602294921875,11.472829765625,18.21702294921875,10.467249765624999C18.70172294921875,9.823169765625,19.01232294921875,9.040349765624999,19.07892294921875,8.188979765625ZM10.392992949218751,8.424269765625C10.50490294921875,9.266369765625,10.856642949218749,10.032749765624999,11.37733294921875,10.652419765625L11.37247294921875,10.656009765625C10.07157294921875,11.675679765625,9.22044294921875,13.242969765625,9.16609294921875,15.010859765625C9.03458294921875,14.998659765625,8.90109294921875,14.992459765625,8.76616294921875,14.992459765625C8.05279294921875,14.992459765625,7.37935294921875,15.163459765625,6.78459494921875,15.466659765625C6.78188494921875,15.375359765625,6.78034894921875,15.283359765625,6.78034894921875,15.191059765625C6.78034894921875,12.370769765624999,8.21434294921875,9.885379765625,10.392992949218751,8.424269765625ZM14.72361294921875,4.666259765625C16.47842294921875,4.666259765625,17.90092294921875,6.088789765625,17.90092294921875,7.843559765625C17.90092294921875,9.598339765625,16.47842294921875,11.020869765625001,14.72361294921875,11.020869765625001C12.96883294921875,11.020869765625001,11.546302949218749,9.598339765625,11.546302949218749,7.843559765625C11.546302949218749,6.088789765625,12.96883294921875,4.666259765625,14.72361294921875,4.666259765625Z" fill="#19DBFF" fill-opacity="1"/></g></g></g></svg>