<svg xmlns="http://www.w3.org/2000/svg" xmlns:xlink="http://www.w3.org/1999/xlink" fill="none" version="1.1" width="24" height="24" viewBox="0 0 24 24"><defs><clipPath id="master_svg0_2992_8604/1456_2705"><rect x="0" y="0" width="24" height="24" rx="0"/></clipPath><linearGradient x1="0.5" y1="1" x2="0.5" y2="0" id="master_svg1_133_2097"><stop offset="0%" stop-color="#159AFF" stop-opacity="1"/><stop offset="100%" stop-color="#29DEFF" stop-opacity="1"/></linearGradient></defs><g style="mix-blend-mode:passthrough"><g style="mix-blend-mode:passthrough" clip-path="url(#master_svg0_2992_8604/1456_2705)"><g style="mix-blend-mode:passthrough"><g style="mix-blend-mode:passthrough"><path d="M19.264159375,5C19.742859375000002,5,20.130859375,5.38802,20.130859375,5.866667L20.130859375,10.46667C20.130859375,10.94531,19.742859375000002,11.33333,19.264159375,11.33333L4.997526375,11.33333C4.518879375,11.33333,4.130859375,10.94531,4.130859375,10.46667L4.130859375,5.866667C4.130859375,5.38802,4.518879375,5,4.997526375,5L19.264159375,5ZM17.108659375000002,7.35238C16.617759375,7.35238,16.219759375000002,7.75746,16.219759375000002,8.25714C16.219759375000002,8.75683,16.617759375,9.1619,17.108659375000002,9.1619C17.599559375,9.1619,17.997559375,8.75683,17.997559375,8.25714C17.997559375,7.75746,17.599559375,7.35238,17.108659375000002,7.35238ZM14.086409375,7.35238C13.595499375,7.35238,13.197529375,7.75746,13.197529375,8.25714C13.197529375,8.75683,13.595499375,9.1619,14.086409375,9.1619C14.577359375,9.1619,14.975259375,8.75683,14.975259375,8.25714C14.975259375,7.75746,14.577359375,7.35238,14.086409375,7.35238ZM19.264159375,12.66667C19.742859375000002,12.66667,20.130859375,13.05469,20.130859375,13.53333L20.130859375,18.1333C20.130859375,18.612000000000002,19.742859375000002,19,19.264159375,19L4.997526375,19C4.518879375,19,4.130859375,18.612000000000002,4.130859375,18.1333L4.130859375,13.53333C4.130859375,13.05469,4.518879375,12.66667,4.997526375,12.66667L19.264159375,12.66667ZM17.108659375000002,15.019C16.617759375,15.019,16.219759375000002,15.4241,16.219759375000002,15.9238C16.219759375000002,16.4235,16.617759375,16.8286,17.108659375000002,16.8286C17.599559375,16.8286,17.997559375,16.4235,17.997559375,15.9238C17.997559375,15.4241,17.599559375,15.019,17.108659375000002,15.019ZM14.086409375,15.019C13.595499375,15.019,13.197529375,15.4241,13.197529375,15.9238C13.197529375,16.4235,13.595499375,16.8286,14.086409375,16.8286C14.577359375,16.8286,14.975259375,16.4235,14.975259375,15.9238C14.975259375,15.4241,14.577359375,15.019,14.086409375,15.019Z" fill-rule="evenodd" fill="url(#master_svg1_133_2097)" fill-opacity="1"/></g></g></g></g></svg>